STARTFONT 2.1
COMMENT
COMMENT Converted from OpenType font "neuropolitical rg.otf" by "otf2bdf 3.0".
COMMENT
FONT -FreeType-Neuropolitical Rg-Medium-R-Normal--17-120-100-100-P-111-ISO10646-1
SIZE 12 100 100
FONTBOUNDINGBOX 25 21 -2 -4
STARTPROPERTIES 19
FOUNDRY "FreeType"
FAMILY_NAME "Neuropolitical Rg"
WEIGHT_NAME "Medium"
SLANT "R"
SETWIDTH_NAME "Normal"
ADD_STYLE_NAME ""
PIXEL_SIZE 17
POINT_SIZE 120
RESOLUTION_X 100
RESOLUTION_Y 100
SPACING "P"
AVERAGE_WIDTH 111
CHARSET_REGISTRY "ISO10646"
CHARSET_ENCODING "1"
FONT_ASCENT 16
FONT_DESCENT 3
COPYRIGHT "(c) 1999-2011 Typodermic Fonts. www.typodermic.com/license.html - Design: Ray Larabie Languages & kerning: Chikako Larabie"
_OTF_FONTFILE "neuropolitical rg.otf"
_OTF_PSNAME "NeuropoliticalRg-Regular"
ENDPROPERTIES
CHARS 385
STARTCHAR 0017
ENCODING 23
SWIDTH 420 0
DWIDTH 7 0
BBX 0 0 0 0
BITMAP
ENDCHAR
STARTCHAR 0020
ENCODING 32
SWIDTH 420 0
DWIDTH 7 0
BBX 0 0 0 0
BITMAP
ENDCHAR
STARTCHAR 0021
ENCODING 33
SWIDTH 300 0
DWIDTH 5 0
BBX 3 12 1 0
BITMAP
E0
E0
E0
E0
E0
E0
E0
E0
00
00
E0
E0
ENDCHAR
STARTCHAR 0022
ENCODING 34
SWIDTH 420 0
DWIDTH 7 0
BBX 5 4 1 8
BITMAP
D8
D8
D8
D8
ENDCHAR
STARTCHAR 0023
ENCODING 35
SWIDTH 660 0
DWIDTH 11 0
BBX 10 12 0 0
BITMAP
1980
1980
1980
7FC0
7FC0
1100
3100
7FC0
FFC0
3300
3300
2300
ENDCHAR
STARTCHAR 0024
ENCODING 36
SWIDTH 840 0
DWIDTH 14 0
BBX 12 14 1 -1
BITMAP
0600
7E00
FE00
C600
C600
C600
FFE0
7FF0
0630
0630
0630
FFF0
FFE0
0600
ENDCHAR
STARTCHAR 0025
ENCODING 37
SWIDTH 1020 0
DWIDTH 17 0
BBX 16 12 1 0
BITMAP
FC30
C630
8660
86C0
C6C0
FD80
037E
0363
0663
0C63
0C63
187E
ENDCHAR
STARTCHAR 0026
ENCODING 38
SWIDTH 960 0
DWIDTH 16 0
BBX 14 12 1 0
BITMAP
3FC0
7FC0
60E0
60C0
73C0
3F80
FE18
C718
C3F8
C0F0
FFF0
7FDC
ENDCHAR
STARTCHAR 0027
ENCODING 39
SWIDTH 240 0
DWIDTH 4 0
BBX 2 4 1 8
BITMAP
C0
C0
C0
C0
ENDCHAR
STARTCHAR 0028
ENCODING 40
SWIDTH 360 0
DWIDTH 6 0
BBX 4 18 2 -4
BITMAP
70
C0
80
80
80
80
80
80
80
80
80
80
80
80
80
80
C0
70
ENDCHAR
STARTCHAR 0029
ENCODING 41
SWIDTH 360 0
DWIDTH 6 0
BBX 4 18 0 -4
BITMAP
E0
30
30
30
30
30
30
30
30
30
30
30
30
30
30
30
30
E0
ENDCHAR
STARTCHAR 002A
ENCODING 42
SWIDTH 540 0
DWIDTH 9 0
BBX 8 8 1 5
BITMAP
10
10
90
FF
18
38
64
44
ENDCHAR
STARTCHAR 002B
ENCODING 43
SWIDTH 600 0
DWIDTH 10 0
BBX 8 8 1 2
BITMAP
18
18
18
FF
FF
18
18
18
ENDCHAR
STARTCHAR 002C
ENCODING 44
SWIDTH 240 0
DWIDTH 4 0
BBX 2 4 1 -1
BITMAP
C0
C0
C0
C0
ENDCHAR
STARTCHAR 002D
ENCODING 45
SWIDTH 420 0
DWIDTH 7 0
BBX 5 2 1 4
BITMAP
F8
F8
ENDCHAR
STARTCHAR 002E
ENCODING 46
SWIDTH 300 0
DWIDTH 5 0
BBX 3 3 1 0
BITMAP
C0
E0
C0
ENDCHAR
STARTCHAR 002F
ENCODING 47
SWIDTH 540 0
DWIDTH 9 0
BBX 8 14 0 -2
BITMAP
03
03
06
06
0C
0C
18
18
18
30
30
60
60
C0
ENDCHAR
STARTCHAR 0030
ENCODING 48
SWIDTH 900 0
DWIDTH 15 0
BBX 13 12 1 0
BITMAP
7FF0
FFF8
E038
C038
C038
C038
C038
C038
C038
E038
FFF8
7FF0
ENDCHAR
STARTCHAR 0031
ENCODING 49
SWIDTH 300 0
DWIDTH 5 0
BBX 3 12 1 0
BITMAP
E0
E0
E0
E0
E0
E0
E0
E0
E0
E0
E0
E0
ENDCHAR
STARTCHAR 0032
ENCODING 50
SWIDTH 900 0
DWIDTH 15 0
BBX 13 12 1 0
BITMAP
03F0
03F8
0018
0018
0018
7FF8
FFF0
C000
C000
C000
FFF8
FFF8
ENDCHAR
STARTCHAR 0033
ENCODING 51
SWIDTH 900 0
DWIDTH 15 0
BBX 13 12 1 0
BITMAP
03F0
03F8
0018
0018
0018
FFF8
FFF8
0018
0018
0018
FFF8
FFF0
ENDCHAR
STARTCHAR 0034
ENCODING 52
SWIDTH 960 0
DWIDTH 16 0
BBX 14 12 1 0
BITMAP
C01C
C01C
C01C
C01C
C01C
C01C
FFFC
FFFC
001C
001C
001C
001C
ENDCHAR
STARTCHAR 0035
ENCODING 53
SWIDTH 960 0
DWIDTH 16 0
BBX 14 12 1 0
BITMAP
FF00
FF00
C000
C000
C000
FFF8
FFFC
001C
000C
001C
FFFC
FFF8
ENDCHAR
STARTCHAR 0036
ENCODING 54
SWIDTH 960 0
DWIDTH 16 0
BBX 14 12 1 0
BITMAP
7F00
FF00
E000
C000
C000
FFF8
FFFC
C01C
C01C
E01C
FFFC
7FF8
ENDCHAR
STARTCHAR 0037
ENCODING 55
SWIDTH 900 0
DWIDTH 15 0
BBX 13 12 1 0
BITMAP
FFF8
FFF8
0038
0070
00E0
01E0
01C0
0380
0700
0E00
1E00
1C00
ENDCHAR
STARTCHAR 0038
ENCODING 56
SWIDTH 900 0
DWIDTH 15 0
BBX 13 12 1 0
BITMAP
7FF0
FFF8
C018
C018
C018
7FF0
FFF8
C018
C018
C018
FFF8
7FF0
ENDCHAR
STARTCHAR 0039
ENCODING 57
SWIDTH 960 0
DWIDTH 16 0
BBX 14 12 1 0
BITMAP
7FF0
FFF8
C01C
C01C
C01C
FFFC
7FFC
001C
001C
001C
03F8
03F0
ENDCHAR
STARTCHAR 003A
ENCODING 58
SWIDTH 300 0
DWIDTH 5 0
BBX 3 9 1 0
BITMAP
C0
E0
C0
00
00
00
C0
E0
C0
ENDCHAR
STARTCHAR 003B
ENCODING 59
SWIDTH 300 0
DWIDTH 5 0
BBX 3 10 1 -1
BITMAP
C0
E0
C0
00
00
00
C0
C0
C0
C0
ENDCHAR
STARTCHAR 003C
ENCODING 60
SWIDTH 600 0
DWIDTH 10 0
BBX 8 10 1 0
BITMAP
01
07
1E
78
E0
E0
78
1E
07
01
ENDCHAR
STARTCHAR 003D
ENCODING 61
SWIDTH 600 0
DWIDTH 10 0
BBX 8 6 1 3
BITMAP
FF
FF
00
00
FF
FF
ENDCHAR
STARTCHAR 003E
ENCODING 62
SWIDTH 600 0
DWIDTH 10 0
BBX 8 10 1 0
BITMAP
80
E0
78
1C
07
07
1C
78
E0
80
ENDCHAR
STARTCHAR 003F
ENCODING 63
SWIDTH 600 0
DWIDTH 10 0
BBX 8 12 1 0
BITMAP
3E
3F
03
03
03
7F
FF
C0
00
00
C0
C0
ENDCHAR
STARTCHAR 0040
ENCODING 64
SWIDTH 720 0
DWIDTH 12 0
BBX 11 14 1 -3
BITMAP
7F80
FFC0
C060
C060
CFE0
CFE0
CC60
CC60
CFC0
CFC0
C000
C000
FC00
7C00
ENDCHAR
STARTCHAR 0041
ENCODING 65
SWIDTH 1020 0
DWIDTH 17 0
BBX 17 12 0 0
BITMAP
01C000
01E000
03E000
077000
063800
0E3800
1C1C00
1FFC00
3FFE00
300700
700700
E00380
ENDCHAR
STARTCHAR 0042
ENCODING 66
SWIDTH 900 0
DWIDTH 15 0
BBX 13 12 1 0
BITMAP
FFF0
FFF8
E018
E018
E018
FFF8
FFF8
E018
E018
E018
FFF8
FFF0
ENDCHAR
STARTCHAR 0043
ENCODING 67
SWIDTH 840 0
DWIDTH 14 0
BBX 12 12 1 0
BITMAP
7FF0
FFF0
E000
C000
C000
C000
C000
C000
C000
E000
FFF0
7FF0
ENDCHAR
STARTCHAR 0044
ENCODING 68
SWIDTH 900 0
DWIDTH 15 0
BBX 13 12 1 0
BITMAP
FFF0
FFF8
E038
E018
E018
E018
E018
E018
E018
E038
FFF8
FFF0
ENDCHAR
STARTCHAR 0045
ENCODING 69
SWIDTH 840 0
DWIDTH 14 0
BBX 12 12 1 0
BITMAP
7E00
FE00
E000
C000
C000
FFF0
FFF0
C000
C000
E000
FFF0
7FF0
ENDCHAR
STARTCHAR 0046
ENCODING 70
SWIDTH 780 0
DWIDTH 13 0
BBX 12 12 1 0
BITMAP
7E00
FE00
E000
C000
C000
FFF0
FFF0
C000
C000
C000
C000
C000
ENDCHAR
STARTCHAR 0047
ENCODING 71
SWIDTH 900 0
DWIDTH 15 0
BBX 13 12 1 0
BITMAP
7E00
FE00
E000
C000
C000
C018
C018
C018
C018
E038
FFF8
7FF0
ENDCHAR
STARTCHAR 0048
ENCODING 72
SWIDTH 900 0
DWIDTH 15 0
BBX 13 12 1 0
BITMAP
E018
E018
E018
E018
E018
FFF8
FFF8
E018
E018
E018
E018
E018
ENDCHAR
STARTCHAR 0049
ENCODING 73
SWIDTH 300 0
DWIDTH 5 0
BBX 3 12 1 0
BITMAP
E0
E0
E0
E0
E0
E0
E0
E0
E0
E0
E0
E0
ENDCHAR
STARTCHAR 004A
ENCODING 74
SWIDTH 540 0
DWIDTH 9 0
BBX 8 12 0 0
BITMAP
07
07
07
07
07
07
07
07
07
06
FE
FC
ENDCHAR
STARTCHAR 004B
ENCODING 75
SWIDTH 780 0
DWIDTH 13 0
BBX 12 12 1 0
BITMAP
E0F0
E1C0
E380
E700
EE00
FC00
FC00
EE00
E780
E3C0
E1E0
E0F0
ENDCHAR
STARTCHAR 004C
ENCODING 76
SWIDTH 780 0
DWIDTH 13 0
BBX 11 12 1 0
BITMAP
C000
C000
C000
C000
C000
C000
C000
C000
C000
E000
FFE0
7FE0
ENDCHAR
STARTCHAR 004D
ENCODING 77
SWIDTH 1200 0
DWIDTH 20 0
BBX 18 12 1 0
BITMAP
C001C0
E001C0
F003C0
F807C0
F806C0
DC0EC0
CE1CC0
C738C0
C730C0
C3F0C0
C1E0C0
C0C0C0
ENDCHAR
STARTCHAR 004E
ENCODING 78
SWIDTH 900 0
DWIDTH 15 0
BBX 13 12 1 0
BITMAP
E018
F018
F818
FC18
DE18
CF18
C798
C3D8
C1F8
C0F8
C078
C038
ENDCHAR
STARTCHAR 004F
ENCODING 79
SWIDTH 900 0
DWIDTH 15 0
BBX 13 12 1 0
BITMAP
7FE0
FFF0
E038
C038
C038
C038
C038
C038
C038
E038
FFF0
7FE0
ENDCHAR
STARTCHAR 0050
ENCODING 80
SWIDTH 900 0
DWIDTH 15 0
BBX 13 12 1 0
BITMAP
FFF0
FFF8
E038
E018
E018
E018
FFF8
FFF0
E000
E000
E000
E000
ENDCHAR
STARTCHAR 0051
ENCODING 81
SWIDTH 900 0
DWIDTH 15 0
BBX 13 14 1 -2
BITMAP
7FE0
FFF0
E038
C038
C038
C038
C038
C038
C038
E038
FFF0
7FF0
0070
0038
ENDCHAR
STARTCHAR 0052
ENCODING 82
SWIDTH 900 0
DWIDTH 15 0
BBX 13 12 1 0
BITMAP
FFF0
FFF8
C038
C018
C018
C018
FFF8
FFF0
CF00
C780
C1E0
C0F8
ENDCHAR
STARTCHAR 0053
ENCODING 83
SWIDTH 780 0
DWIDTH 13 0
BBX 12 12 1 0
BITMAP
7C00
FC00
C000
C000
C000
FFE0
7FF0
0070
0030
0070
FFF0
FFE0
ENDCHAR
STARTCHAR 0054
ENCODING 84
SWIDTH 780 0
DWIDTH 13 0
BBX 12 12 0 0
BITMAP
FFF0
FFF0
0700
0700
0700
0700
0700
0700
0700
0700
0700
0700
ENDCHAR
STARTCHAR 0055
ENCODING 85
SWIDTH 900 0
DWIDTH 15 0
BBX 13 12 1 0
BITMAP
C038
C038
C038
C038
C038
C038
C038
C038
E038
E038
FFF0
7FE0
ENDCHAR
STARTCHAR 0056
ENCODING 86
SWIDTH 1020 0
DWIDTH 17 0
BBX 17 12 0 0
BITMAP
E00380
700700
380E00
380E00
1C1C00
1C1C00
0E3800
077000
077000
03E000
03E000
01C000
ENDCHAR
STARTCHAR 0057
ENCODING 87
SWIDTH 1320 0
DWIDTH 22 0
BBX 22 12 0 0
BITMAP
E0381C
70781C
707838
307C38
38EC30
38CE70
19C660
1D87E0
0F87E0
0F03C0
0F03C0
060180
ENDCHAR
STARTCHAR 0058
ENCODING 88
SWIDTH 1020 0
DWIDTH 17 0
BBX 15 12 1 0
BITMAP
F00E
783C
3C78
1EF0
0FE0
07C0
07C0
0FE0
1CF0
3878
703C
E00E
ENDCHAR
STARTCHAR 0059
ENCODING 89
SWIDTH 960 0
DWIDTH 16 0
BBX 14 12 1 0
BITMAP
E01C
7038
3870
1CE0
0FC0
0780
0300
0300
0300
0300
0300
0300
ENDCHAR
STARTCHAR 005A
ENCODING 90
SWIDTH 840 0
DWIDTH 14 0
BBX 12 12 1 0
BITMAP
FFF0
FFF0
00E0
01C0
0380
0700
0E00
1C00
7800
F000
FFF0
FFF0
ENDCHAR
STARTCHAR 005B
ENCODING 91
SWIDTH 360 0
DWIDTH 6 0
BBX 4 18 2 -4
BITMAP
F0
80
80
80
80
80
80
80
80
80
80
80
80
80
80
80
80
F0
ENDCHAR
STARTCHAR 005C
ENCODING 92
SWIDTH 540 0
DWIDTH 9 0
BBX 8 14 0 -2
BITMAP
C0
60
60
30
30
18
18
18
0C
0C
06
06
03
03
ENDCHAR
STARTCHAR 005D
ENCODING 93
SWIDTH 360 0
DWIDTH 6 0
BBX 4 18 0 -4
BITMAP
F0
10
10
10
10
10
10
10
10
10
10
10
10
10
10
10
10
F0
ENDCHAR
STARTCHAR 005E
ENCODING 94
SWIDTH 600 0
DWIDTH 10 0
BBX 9 8 1 4
BITMAP
1800
1C00
3C00
3600
6600
6300
C300
C180
ENDCHAR
STARTCHAR 005F
ENCODING 95
SWIDTH 660 0
DWIDTH 11 0
BBX 11 2 0 -2
BITMAP
FFE0
FFE0
ENDCHAR
STARTCHAR 0060
ENCODING 96
SWIDTH 420 0
DWIDTH 7 0
BBX 4 4 1 10
BITMAP
E0
60
30
30
ENDCHAR
STARTCHAR 0061
ENCODING 97
SWIDTH 840 0
DWIDTH 14 0
BBX 12 9 1 0
BITMAP
03E0
03F0
0070
3FF0
FFF0
C030
C070
FFF0
7FE0
ENDCHAR
STARTCHAR 0062
ENCODING 98
SWIDTH 840 0
DWIDTH 14 0
BBX 12 12 1 0
BITMAP
C000
C000
C000
FFC0
FFE0
C070
C070
C070
C070
E070
FFE0
7FC0
ENDCHAR
STARTCHAR 0063
ENCODING 99
SWIDTH 780 0
DWIDTH 13 0
BBX 11 9 1 0
BITMAP
7FE0
FFE0
E000
C000
C000
C000
E000
FFE0
7FE0
ENDCHAR
STARTCHAR 0064
ENCODING 100
SWIDTH 840 0
DWIDTH 14 0
BBX 12 12 1 0
BITMAP
0070
0070
0070
7FF0
FFF0
E070
C070
C070
C070
E070
FFE0
7FC0
ENDCHAR
STARTCHAR 0065
ENCODING 101
SWIDTH 780 0
DWIDTH 13 0
BBX 12 9 1 0
BITMAP
7FE0
FFF0
E070
C070
FFF0
FFF0
C000
FE00
7E00
ENDCHAR
STARTCHAR 0066
ENCODING 102
SWIDTH 420 0
DWIDTH 7 0
BBX 6 12 1 0
BITMAP
7C
FC
C0
FC
FC
C0
C0
C0
C0
C0
C0
C0
ENDCHAR
STARTCHAR 0067
ENCODING 103
SWIDTH 840 0
DWIDTH 14 0
BBX 12 12 1 -3
BITMAP
7FC0
FFE0
E070
C070
C070
C070
FFF0
7FF0
0070
0070
07E0
07E0
ENDCHAR
STARTCHAR 0068
ENCODING 104
SWIDTH 840 0
DWIDTH 14 0
BBX 12 12 1 0
BITMAP
C000
C000
C000
FFC0
FFE0
C070
C070
C070
C070
C070
C070
C070
ENDCHAR
STARTCHAR 0069
ENCODING 105
SWIDTH 300 0
DWIDTH 5 0
BBX 3 12 1 0
BITMAP
C0
E0
40
E0
E0
E0
E0
E0
E0
E0
E0
E0
ENDCHAR
STARTCHAR 006A
ENCODING 106
SWIDTH 300 0
DWIDTH 5 0
BBX 5 15 -1 -3
BITMAP
38
38
10
38
38
38
38
38
38
38
38
38
38
F0
E0
ENDCHAR
STARTCHAR 006B
ENCODING 107
SWIDTH 720 0
DWIDTH 12 0
BBX 10 12 1 0
BITMAP
C000
C000
C000
C1C0
C380
C700
DC00
FC00
DE00
C700
C380
C1C0
ENDCHAR
STARTCHAR 006C
ENCODING 108
SWIDTH 300 0
DWIDTH 5 0
BBX 3 12 1 0
BITMAP
E0
E0
E0
E0
E0
E0
E0
E0
E0
E0
E0
E0
ENDCHAR
STARTCHAR 006D
ENCODING 109
SWIDTH 1140 0
DWIDTH 19 0
BBX 17 9 1 0
BITMAP
7F7F00
FFFF00
E1C380
C18380
C18380
C18380
C18380
C18380
C18380
ENDCHAR
STARTCHAR 006E
ENCODING 110
SWIDTH 840 0
DWIDTH 14 0
BBX 12 9 1 0
BITMAP
7FC0
FFE0
E070
C070
C070
C070
C070
C070
C070
ENDCHAR
STARTCHAR 006F
ENCODING 111
SWIDTH 840 0
DWIDTH 14 0
BBX 12 9 1 0
BITMAP
7FC0
FFE0
E060
C070
C070
C070
E060
FFE0
7FC0
ENDCHAR
STARTCHAR 0070
ENCODING 112
SWIDTH 840 0
DWIDTH 14 0
BBX 12 12 1 -3
BITMAP
7FC0
FFE0
E070
C070
C070
C070
C070
FFE0
FFC0
C000
C000
C000
ENDCHAR
STARTCHAR 0071
ENCODING 113
SWIDTH 840 0
DWIDTH 14 0
BBX 12 12 1 -3
BITMAP
7FC0
FFE0
E070
C070
C070
C070
E070
FFF0
7FF0
0070
0070
0070
ENDCHAR
STARTCHAR 0072
ENCODING 114
SWIDTH 420 0
DWIDTH 7 0
BBX 6 9 1 0
BITMAP
7C
FC
E0
C0
C0
C0
C0
C0
C0
ENDCHAR
STARTCHAR 0073
ENCODING 115
SWIDTH 720 0
DWIDTH 12 0
BBX 11 9 1 0
BITMAP
FC00
FC00
C000
FF80
FFC0
00E0
00E0
FFE0
FFC0
ENDCHAR
STARTCHAR 0074
ENCODING 116
SWIDTH 420 0
DWIDTH 7 0
BBX 7 12 0 0
BITMAP
70
70
70
FE
FE
70
70
70
70
70
70
70
ENDCHAR
STARTCHAR 0075
ENCODING 117
SWIDTH 840 0
DWIDTH 14 0
BBX 12 9 1 0
BITMAP
C070
C070
C070
C070
C070
C070
E060
FFE0
7FC0
ENDCHAR
STARTCHAR 0076
ENCODING 118
SWIDTH 960 0
DWIDTH 16 0
BBX 14 9 1 0
BITMAP
C01C
E038
7038
3870
38E0
1CC0
0FC0
0780
0700
ENDCHAR
STARTCHAR 0077
ENCODING 119
SWIDTH 1080 0
DWIDTH 18 0
BBX 18 10 0 0
BITMAP
E0C0C0
60E1C0
71E180
71F380
33B300
3B3B00
1F1F00
1E1E00
0E1E00
0C0C00
ENDCHAR
STARTCHAR 0078
ENCODING 120
SWIDTH 780 0
DWIDTH 13 0
BBX 11 9 1 0
BITMAP
E0E0
71C0
3B80
1F00
0E00
1F00
3B80
71C0
E0E0
ENDCHAR
STARTCHAR 0079
ENCODING 121
SWIDTH 840 0
DWIDTH 14 0
BBX 12 12 1 -3
BITMAP
C070
C070
C070
C070
C070
E070
FFF0
7FF0
0070
0070
07F0
07E0
ENDCHAR
STARTCHAR 007A
ENCODING 122
SWIDTH 720 0
DWIDTH 12 0
BBX 10 9 1 0
BITMAP
FFC0
FFC0
0380
0E00
1C00
3800
7000
FFC0
FFC0
ENDCHAR
STARTCHAR 007B
ENCODING 123
SWIDTH 360 0
DWIDTH 6 0
BBX 5 18 0 -4
BITMAP
38
30
30
30
30
30
30
30
E0
E0
30
30
30
30
30
30
30
38
ENDCHAR
STARTCHAR 007C
ENCODING 124
SWIDTH 240 0
DWIDTH 4 0
BBX 2 18 1 -4
BITMAP
C0
C0
C0
C0
C0
C0
C0
C0
C0
C0
C0
C0
C0
C0
C0
C0
C0
C0
ENDCHAR
STARTCHAR 007D
ENCODING 125
SWIDTH 360 0
DWIDTH 6 0
BBX 5 18 0 -4
BITMAP
E0
30
30
30
30
30
30
30
38
38
30
30
30
30
30
30
30
E0
ENDCHAR
STARTCHAR 007E
ENCODING 126
SWIDTH 600 0
DWIDTH 10 0
BBX 8 2 1 5
BITMAP
F1
9F
ENDCHAR
STARTCHAR 00A0
ENCODING 160
SWIDTH 420 0
DWIDTH 7 0
BBX 0 0 0 0
BITMAP
ENDCHAR
STARTCHAR 00A1
ENCODING 161
SWIDTH 300 0
DWIDTH 5 0
BBX 3 12 1 0
BITMAP
E0
E0
40
00
E0
E0
E0
E0
E0
E0
E0
E0
ENDCHAR
STARTCHAR 00A2
ENCODING 162
SWIDTH 720 0
DWIDTH 12 0
BBX 11 12 1 0
BITMAP
0600
7FE0
FFE0
E600
C600
C600
C600
C600
E600
FFE0
7FE0
0600
ENDCHAR
STARTCHAR 00A3
ENCODING 163
SWIDTH 840 0
DWIDTH 14 0
BBX 13 12 0 0
BITMAP
1F80
3F80
3800
3000
3000
3FF8
3FF8
3000
3000
3000
FFF8
FFF8
ENDCHAR
STARTCHAR 00A4
ENCODING 164
SWIDTH 720 0
DWIDTH 12 0
BBX 10 11 1 0
BITMAP
8040
C0C0
6180
3F00
2100
2100
2100
3F00
6180
C0C0
8040
ENDCHAR
STARTCHAR 00A5
ENCODING 165
SWIDTH 900 0
DWIDTH 15 0
BBX 13 12 1 0
BITMAP
E038
7070
70E0
39C0
1F80
0F00
7FF0
7FF0
0600
7FF0
7FF0
0600
ENDCHAR
STARTCHAR 00A6
ENCODING 166
SWIDTH 240 0
DWIDTH 4 0
BBX 2 18 1 -4
BITMAP
C0
C0
C0
C0
C0
C0
C0
C0
00
00
C0
C0
C0
C0
C0
C0
C0
C0
ENDCHAR
STARTCHAR 00A7
ENCODING 167
SWIDTH 720 0
DWIDTH 12 0
BBX 10 16 1 -4
BITMAP
7E00
FE00
C000
C000
C000
FF80
FFC0
C0C0
C0C0
FFC0
7FC0
00C0
00C0
00C0
FFC0
FF80
ENDCHAR
STARTCHAR 00A8
ENCODING 168
SWIDTH 540 0
DWIDTH 9 0
BBX 7 3 1 9
BITMAP
CE
CE
44
ENDCHAR
STARTCHAR 00A9
ENCODING 169
SWIDTH 840 0
DWIDTH 14 0
BBX 13 12 1 0
BITMAP
7FE0
C030
8010
8F98
9018
9018
9018
9018
8F98
8010
C030
7FE0
ENDCHAR
STARTCHAR 00AA
ENCODING 170
SWIDTH 540 0
DWIDTH 9 0
BBX 7 5 1 5
BITMAP
1C
06
FE
C6
FC
ENDCHAR
STARTCHAR 00AB
ENCODING 171
SWIDTH 600 0
DWIDTH 10 0
BBX 9 8 0 2
BITMAP
1080
3180
7380
E700
E700
7380
3180
1080
ENDCHAR
STARTCHAR 00AC
ENCODING 172
SWIDTH 600 0
DWIDTH 10 0
BBX 8 7 1 0
BITMAP
FF
FF
03
03
03
03
03
ENDCHAR
STARTCHAR 00AE
ENCODING 174
SWIDTH 840 0
DWIDTH 14 0
BBX 13 12 1 0
BITMAP
7FE0
C030
8010
9F98
9098
9098
9F98
9218
9198
8010
C030
7FE0
ENDCHAR
STARTCHAR 00AF
ENCODING 175
SWIDTH 660 0
DWIDTH 11 0
BBX 9 2 1 11
BITMAP
FF80
FF80
ENDCHAR
STARTCHAR 00B0
ENCODING 176
SWIDTH 480 0
DWIDTH 8 0
BBX 6 6 1 6
BITMAP
F8
CC
8C
8C
8C
F8
ENDCHAR
STARTCHAR 00B1
ENCODING 177
SWIDTH 600 0
DWIDTH 10 0
BBX 8 10 1 0
BITMAP
18
18
18
FF
FF
18
18
18
FF
FF
ENDCHAR
STARTCHAR 00B2
ENCODING 178
SWIDTH 480 0
DWIDTH 8 0
BBX 7 6 1 6
BITMAP
1C
06
FC
80
80
FE
ENDCHAR
STARTCHAR 00B3
ENCODING 179
SWIDTH 480 0
DWIDTH 8 0
BBX 6 5 1 7
BITMAP
1C
04
FC
04
FC
ENDCHAR
STARTCHAR 00B4
ENCODING 180
SWIDTH 420 0
DWIDTH 7 0
BBX 4 4 1 10
BITMAP
30
70
60
C0
ENDCHAR
STARTCHAR 00B6
ENCODING 182
SWIDTH 900 0
DWIDTH 15 0
BBX 14 15 0 -3
BITMAP
3FFC
7FFC
E31C
E31C
E31C
E31C
7F1C
3F1C
031C
031C
031C
031C
031C
031C
031C
ENDCHAR
STARTCHAR 00B7
ENCODING 183
SWIDTH 300 0
DWIDTH 5 0
BBX 3 3 1 4
BITMAP
C0
E0
C0
ENDCHAR
STARTCHAR 00B8
ENCODING 184
SWIDTH 300 0
DWIDTH 5 0
BBX 2 3 1 -4
BITMAP
C0
C0
C0
ENDCHAR
STARTCHAR 00B9
ENCODING 185
SWIDTH 180 0
DWIDTH 3 0
BBX 1 6 1 6
BITMAP
80
80
80
80
80
80
ENDCHAR
STARTCHAR 00BA
ENCODING 186
SWIDTH 540 0
DWIDTH 9 0
BBX 7 5 1 5
BITMAP
FC
CC
C6
C4
FC
ENDCHAR
STARTCHAR 00BB
ENCODING 187
SWIDTH 600 0
DWIDTH 10 0
BBX 9 8 0 2
BITMAP
8400
C600
E700
3180
3180
7700
C600
8400
ENDCHAR
STARTCHAR 00BC
ENCODING 188
SWIDTH 960 0
DWIDTH 16 0
BBX 14 12 1 0
BITMAP
4080
4180
4300
4200
4600
4C00
090C
190C
310C
21FC
600C
C00C
ENDCHAR
STARTCHAR 00BD
ENCODING 189
SWIDTH 840 0
DWIDTH 14 0
BBX 12 12 1 0
BITMAP
4080
4180
4300
4200
4600
4C00
08F0
1810
3010
27F0
6600
C7F0
ENDCHAR
STARTCHAR 00BE
ENCODING 190
SWIDTH 1140 0
DWIDTH 19 0
BBX 17 12 1 0
BITMAP
1C1800
063000
FC6000
066000
FEC000
018000
01A180
032180
062180
063F80
0C0180
180180
ENDCHAR
STARTCHAR 00BF
ENCODING 191
SWIDTH 600 0
DWIDTH 10 0
BBX 9 12 0 0
BITMAP
0180
0180
0100
0000
0180
7F80
7F00
6000
E000
6000
7C00
3C00
ENDCHAR
STARTCHAR 00C0
ENCODING 192
SWIDTH 1020 0
DWIDTH 17 0
BBX 17 17 0 0
BITMAP
030000
038000
018000
00C000
000000
01C000
01E000
03E000
077000
063800
0E3800
1C1C00
1FFC00
3FFE00
300700
700700
E00380
ENDCHAR
STARTCHAR 00C1
ENCODING 193
SWIDTH 1020 0
DWIDTH 17 0
BBX 17 17 0 0
BITMAP
006000
00E000
00C000
018000
000000
01C000
01E000
03E000
077000
063800
0E3800
1C1C00
1FFC00
3FFE00
300700
700700
E00380
ENDCHAR
STARTCHAR 00C2
ENCODING 194
SWIDTH 1020 0
DWIDTH 17 0
BBX 17 17 0 0
BITMAP
01C000
01E000
036000
077000
063800
01C000
01E000
03E000
077000
063800
0E3800
1C1C00
1FFC00
3FFE00
300700
700700
E00380
ENDCHAR
STARTCHAR 00C3
ENCODING 195
SWIDTH 1020 0
DWIDTH 17 0
BBX 17 16 0 0
BITMAP
0FF800
0FF800
000000
000000
01C000
01E000
03E000
077000
063800
0E3800
1C1C00
1FFC00
3FFE00
300700
700700
E00380
ENDCHAR
STARTCHAR 00C4
ENCODING 196
SWIDTH 1020 0
DWIDTH 17 0
BBX 17 15 0 0
BITMAP
073000
073000
022000
01C000
01E000
03E000
077000
063800
0E3800
1C1C00
1FFC00
3FFE00
300700
700700
E00380
ENDCHAR
STARTCHAR 00C5
ENCODING 197
SWIDTH 1020 0
DWIDTH 17 0
BBX 17 17 0 0
BITMAP
03E000
022000
022000
022000
03E000
01C000
01E000
03E000
077000
063800
0E3800
1C1C00
1FFC00
3FFE00
300700
700700
E00380
ENDCHAR
STARTCHAR 00C6
ENCODING 198
SWIDTH 1320 0
DWIDTH 22 0
BBX 22 12 0 0
BITMAP
01FF80
03FF80
03B000
073000
063000
0E3FFC
1C3FFC
1FF000
3FF000
383800
703FFC
E01FFC
ENDCHAR
STARTCHAR 00C7
ENCODING 199
SWIDTH 840 0
DWIDTH 14 0
BBX 12 16 1 -4
BITMAP
7FF0
FFF0
E000
C000
C000
C000
C000
C000
C000
E000
FFF0
7FF0
0000
0600
0600
0600
ENDCHAR
STARTCHAR 00C8
ENCODING 200
SWIDTH 840 0
DWIDTH 14 0
BBX 12 17 1 0
BITMAP
1C00
0C00
0E00
0600
0000
7E00
FE00
E000
C000
C000
FFF0
FFF0
C000
C000
E000
FFF0
7FF0
ENDCHAR
STARTCHAR 00C9
ENCODING 201
SWIDTH 840 0
DWIDTH 14 0
BBX 12 17 1 0
BITMAP
0380
0300
0600
0600
0000
7E00
FE00
E000
C000
C000
FFF0
FFF0
C000
C000
E000
FFF0
7FF0
ENDCHAR
STARTCHAR 00CA
ENCODING 202
SWIDTH 840 0
DWIDTH 14 0
BBX 12 17 1 0
BITMAP
0700
0F80
1D80
18C0
0000
7E00
FE00
E000
C000
C000
FFF0
FFF0
C000
C000
E000
FFF0
7FF0
ENDCHAR
STARTCHAR 00CB
ENCODING 203
SWIDTH 840 0
DWIDTH 14 0
BBX 12 15 1 0
BITMAP
19C0
1DC0
0880
7E00
FE00
E000
C000
C000
FFF0
FFF0
C000
C000
E000
FFF0
7FF0
ENDCHAR
STARTCHAR 00CC
ENCODING 204
SWIDTH 300 0
DWIDTH 5 0
BBX 5 17 -1 0
BITMAP
E0
60
30
38
00
38
38
38
38
38
38
38
38
38
38
38
38
ENDCHAR
STARTCHAR 00CD
ENCODING 205
SWIDTH 300 0
DWIDTH 5 0
BBX 4 17 1 0
BITMAP
30
60
60
C0
00
E0
E0
E0
E0
E0
E0
E0
E0
E0
E0
E0
E0
ENDCHAR
STARTCHAR 00CE
ENCODING 206
SWIDTH 300 0
DWIDTH 5 0
BBX 8 17 -2 0
BITMAP
1C
3C
76
E3
00
1C
1C
1C
1C
1C
1C
1C
1C
1C
1C
1C
1C
ENDCHAR
STARTCHAR 00CF
ENCODING 207
SWIDTH 300 0
DWIDTH 5 0
BBX 7 15 -1 0
BITMAP
CE
CE
44
38
38
38
38
38
38
38
38
38
38
38
38
ENDCHAR
STARTCHAR 00D0
ENCODING 208
SWIDTH 960 0
DWIDTH 16 0
BBX 15 12 0 0
BITMAP
7FF8
7FFC
700E
700E
700E
FF8E
FF8E
700E
700E
700E
7FFC
7FF8
ENDCHAR
STARTCHAR 00D1
ENCODING 209
SWIDTH 900 0
DWIDTH 15 0
BBX 13 16 1 0
BITMAP
3FE0
3FE0
0000
0000
E018
F018
F818
FC18
DE18
CF18
C798
C3D8
C1F8
C0F8
C078
C038
ENDCHAR
STARTCHAR 00D2
ENCODING 210
SWIDTH 900 0
DWIDTH 15 0
BBX 13 17 1 0
BITMAP
0C00
0E00
0600
0300
0000
7FE0
FFF0
E038
C038
C038
C038
C038
C038
C038
E038
FFF0
7FE0
ENDCHAR
STARTCHAR 00D3
ENCODING 211
SWIDTH 900 0
DWIDTH 15 0
BBX 13 17 1 0
BITMAP
0180
0380
0300
0600
0000
7FE0
FFF0
E038
C038
C038
C038
C038
C038
C038
E038
FFF0
7FE0
ENDCHAR
STARTCHAR 00D4
ENCODING 212
SWIDTH 900 0
DWIDTH 15 0
BBX 13 17 1 0
BITMAP
0700
0F80
1D80
18C0
0000
7FE0
FFF0
E038
C038
C038
C038
C038
C038
C038
E038
FFF0
7FE0
ENDCHAR
STARTCHAR 00D5
ENCODING 213
SWIDTH 900 0
DWIDTH 15 0
BBX 13 16 1 0
BITMAP
3FE0
3FE0
0000
0000
7FE0
FFF0
E038
C038
C038
C038
C038
C038
C038
E038
FFF0
7FE0
ENDCHAR
STARTCHAR 00D6
ENCODING 214
SWIDTH 900 0
DWIDTH 15 0
BBX 13 15 1 0
BITMAP
19C0
1DC0
0880
7FE0
FFF0
E038
C038
C038
C038
C038
C038
C038
E038
FFF0
7FE0
ENDCHAR
STARTCHAR 00D7
ENCODING 215
SWIDTH 600 0
DWIDTH 10 0
BBX 6 6 2 3
BITMAP
84
DC
78
78
DC
84
ENDCHAR
STARTCHAR 00D8
ENCODING 216
SWIDTH 900 0
DWIDTH 15 0
BBX 13 16 1 -2
BITMAP
0038
0030
7FE0
FFF0
E1F8
C1B8
C3B8
C738
C638
CE38
DC38
F838
FFF0
7FE0
6000
E000
ENDCHAR
STARTCHAR 00D9
ENCODING 217
SWIDTH 900 0
DWIDTH 15 0
BBX 13 17 1 0
BITMAP
0C00
0E00
0600
0300
0000
C038
C038
C038
C038
C038
C038
C038
C038
E038
E038
FFF0
7FE0
ENDCHAR
STARTCHAR 00DA
ENCODING 218
SWIDTH 900 0
DWIDTH 15 0
BBX 13 17 1 0
BITMAP
0180
0380
0300
0600
0000
C038
C038
C038
C038
C038
C038
C038
C038
E038
E038
FFF0
7FE0
ENDCHAR
STARTCHAR 00DB
ENCODING 219
SWIDTH 900 0
DWIDTH 15 0
BBX 13 17 1 0
BITMAP
0700
0F80
1D80
18C0
0000
C038
C038
C038
C038
C038
C038
C038
C038
E038
E038
FFF0
7FE0
ENDCHAR
STARTCHAR 00DC
ENCODING 220
SWIDTH 900 0
DWIDTH 15 0
BBX 13 15 1 0
BITMAP
19C0
1DC0
0880
C038
C038
C038
C038
C038
C038
C038
C038
E038
E038
FFF0
7FE0
ENDCHAR
STARTCHAR 00DD
ENCODING 221
SWIDTH 960 0
DWIDTH 16 0
BBX 14 17 1 0
BITMAP
01C0
0180
0380
0300
0000
E01C
7038
3870
1CE0
0FC0
0780
0300
0300
0300
0300
0300
0300
ENDCHAR
STARTCHAR 00DE
ENCODING 222
SWIDTH 900 0
DWIDTH 15 0
BBX 13 12 1 0
BITMAP
E000
E000
FFF0
FFF8
E018
E018
E018
E018
FFF8
FFF0
E000
E000
ENDCHAR
STARTCHAR 00DF
ENCODING 223
SWIDTH 960 0
DWIDTH 16 0
BBX 14 12 1 0
BITMAP
7F00
FF00
C300
C300
C3F8
C3FC
C01C
C00C
C00C
C01C
C7FC
C7F8
ENDCHAR
STARTCHAR 00E0
ENCODING 224
SWIDTH 840 0
DWIDTH 14 0
BBX 12 14 1 0
BITMAP
0C00
0E00
0600
0300
0000
03E0
03F0
0070
3FF0
FFF0
C030
C070
FFF0
7FE0
ENDCHAR
STARTCHAR 00E1
ENCODING 225
SWIDTH 840 0
DWIDTH 14 0
BBX 12 14 1 0
BITMAP
0180
0380
0300
0600
0000
03E0
03F0
0070
3FF0
FFF0
C030
C070
FFF0
7FE0
ENDCHAR
STARTCHAR 00E2
ENCODING 226
SWIDTH 840 0
DWIDTH 14 0
BBX 12 14 1 0
BITMAP
0700
0F80
1DC0
18C0
0000
03E0
03F0
0070
3FF0
FFF0
C030
C070
FFF0
7FE0
ENDCHAR
STARTCHAR 00E3
ENCODING 227
SWIDTH 840 0
DWIDTH 14 0
BBX 12 13 1 0
BITMAP
3FE0
3FE0
0000
0000
03E0
03F0
0070
3FF0
FFF0
C030
C070
FFF0
7FE0
ENDCHAR
STARTCHAR 00E4
ENCODING 228
SWIDTH 840 0
DWIDTH 14 0
BBX 12 12 1 0
BITMAP
1DC0
1DC0
0880
03E0
03F0
0070
3FF0
FFF0
C030
C070
FFF0
7FE0
ENDCHAR
STARTCHAR 00E5
ENCODING 229
SWIDTH 840 0
DWIDTH 14 0
BBX 12 14 1 0
BITMAP
0F80
0880
0880
0880
0F80
03E0
03F0
0070
3FF0
FFF0
C030
C070
FFF0
7FE0
ENDCHAR
STARTCHAR 00E6
ENCODING 230
SWIDTH 1380 0
DWIDTH 23 0
BBX 21 9 1 0
BITMAP
03DFF0
03FFF8
007018
3FF018
FFFFF8
C07FF8
C07000
FFFF00
7FFF00
ENDCHAR
STARTCHAR 00E7
ENCODING 231
SWIDTH 780 0
DWIDTH 13 0
BBX 11 13 1 -4
BITMAP
7FE0
FFE0
E000
C000
C000
C000
E000
FFE0
7FE0
0000
0E00
0C00
0C00
ENDCHAR
STARTCHAR 00E8
ENCODING 232
SWIDTH 780 0
DWIDTH 13 0
BBX 12 14 1 0
BITMAP
1800
0C00
0C00
0600
0000
7FE0
FFF0
E070
C070
FFF0
FFF0
C000
FE00
7E00
ENDCHAR
STARTCHAR 00E9
ENCODING 233
SWIDTH 780 0
DWIDTH 13 0
BBX 12 14 1 0
BITMAP
0380
0300
0600
0E00
0000
7FE0
FFF0
E070
C070
FFF0
FFF0
C000
FE00
7E00
ENDCHAR
STARTCHAR 00EA
ENCODING 234
SWIDTH 780 0
DWIDTH 13 0
BBX 12 14 1 0
BITMAP
0E00
0F00
1B80
31C0
0000
7FE0
FFF0
E070
C070
FFF0
FFF0
C000
FE00
7E00
ENDCHAR
STARTCHAR 00EB
ENCODING 235
SWIDTH 780 0
DWIDTH 13 0
BBX 12 12 1 0
BITMAP
3980
3980
1100
7FE0
FFF0
E070
C070
FFF0
FFF0
C000
FE00
7E00
ENDCHAR
STARTCHAR 00EC
ENCODING 236
SWIDTH 300 0
DWIDTH 5 0
BBX 5 14 -1 0
BITMAP
E0
60
30
38
00
38
38
38
38
38
38
38
38
38
ENDCHAR
STARTCHAR 00ED
ENCODING 237
SWIDTH 300 0
DWIDTH 5 0
BBX 4 14 1 0
BITMAP
30
60
60
C0
00
E0
E0
E0
E0
E0
E0
E0
E0
E0
ENDCHAR
STARTCHAR 00EE
ENCODING 238
SWIDTH 420 0
DWIDTH 7 0
BBX 7 14 0 0
BITMAP
38
7C
EC
C6
00
38
38
38
38
38
38
38
38
38
ENDCHAR
STARTCHAR 00EF
ENCODING 239
SWIDTH 300 0
DWIDTH 5 0
BBX 7 12 -1 0
BITMAP
E6
E6
44
38
38
38
38
38
38
38
38
38
ENDCHAR
STARTCHAR 00F0
ENCODING 240
SWIDTH 840 0
DWIDTH 14 0
BBX 13 13 1 0
BITMAP
0018
1FF0
1FF0
0070
0070
7FF0
FFF0
E070
C070
C070
E070
FFE0
7FC0
ENDCHAR
STARTCHAR 00F1
ENCODING 241
SWIDTH 840 0
DWIDTH 14 0
BBX 12 13 1 0
BITMAP
7FC0
7FC0
0000
0000
7FC0
FFE0
E070
C070
C070
C070
C070
C070
C070
ENDCHAR
STARTCHAR 00F2
ENCODING 242
SWIDTH 840 0
DWIDTH 14 0
BBX 12 14 1 0
BITMAP
1800
0C00
0C00
0600
0000
7FC0
FFE0
E060
C070
C070
C070
E060
FFE0
7FC0
ENDCHAR
STARTCHAR 00F3
ENCODING 243
SWIDTH 840 0
DWIDTH 14 0
BBX 12 14 1 0
BITMAP
0380
0300
0600
0E00
0000
7FC0
FFE0
E060
C070
C070
C070
E060
FFE0
7FC0
ENDCHAR
STARTCHAR 00F4
ENCODING 244
SWIDTH 840 0
DWIDTH 14 0
BBX 12 14 1 0
BITMAP
0E00
0F00
1B80
31C0
0000
7FC0
FFE0
E060
C070
C070
C070
E060
FFE0
7FC0
ENDCHAR
STARTCHAR 00F5
ENCODING 245
SWIDTH 840 0
DWIDTH 14 0
BBX 12 13 1 0
BITMAP
7FC0
7FC0
0000
0000
7FC0
FFE0
E060
C070
C070
C070
E060
FFE0
7FC0
ENDCHAR
STARTCHAR 00F6
ENCODING 246
SWIDTH 840 0
DWIDTH 14 0
BBX 12 12 1 0
BITMAP
3980
3980
1000
7FC0
FFE0
E060
C070
C070
C070
E060
FFE0
7FC0
ENDCHAR
STARTCHAR 00F7
ENCODING 247
SWIDTH 600 0
DWIDTH 10 0
BBX 8 9 1 1
BITMAP
18
18
18
FF
FF
00
18
18
18
ENDCHAR
STARTCHAR 00F8
ENCODING 248
SWIDTH 840 0
DWIDTH 14 0
BBX 12 13 1 -2
BITMAP
0060
00E0
7FC0
FFE0
E3E0
C770
CE70
CC70
F860
FFE0
7FC0
6000
E000
ENDCHAR
STARTCHAR 00F9
ENCODING 249
SWIDTH 840 0
DWIDTH 14 0
BBX 12 14 1 0
BITMAP
1800
0C00
0C00
0600
0000
C070
C070
C070
C070
C070
C070
E060
FFE0
7FC0
ENDCHAR
STARTCHAR 00FA
ENCODING 250
SWIDTH 840 0
DWIDTH 14 0
BBX 12 14 1 0
BITMAP
0380
0300
0600
0E00
0000
C070
C070
C070
C070
C070
C070
E060
FFE0
7FC0
ENDCHAR
STARTCHAR 00FB
ENCODING 251
SWIDTH 840 0
DWIDTH 14 0
BBX 12 14 1 0
BITMAP
0E00
0F00
1B80
31C0
0000
C070
C070
C070
C070
C070
C070
E060
FFE0
7FC0
ENDCHAR
STARTCHAR 00FC
ENCODING 252
SWIDTH 840 0
DWIDTH 14 0
BBX 12 12 1 0
BITMAP
3980
3980
1000
C070
C070
C070
C070
C070
C070
E060
FFE0
7FC0
ENDCHAR
STARTCHAR 00FD
ENCODING 253
SWIDTH 840 0
DWIDTH 14 0
BBX 12 17 1 -3
BITMAP
0380
0300
0600
0600
0000
C070
C070
C070
C070
C070
E070
FFF0
7FF0
0070
0070
07F0
07E0
ENDCHAR
STARTCHAR 00FE
ENCODING 254
SWIDTH 840 0
DWIDTH 14 0
BBX 12 15 1 -3
BITMAP
E000
E000
E000
FFC0
FFE0
E070
E070
E070
E070
E070
FFE0
FFC0
E000
E000
E000
ENDCHAR
STARTCHAR 00FF
ENCODING 255
SWIDTH 840 0
DWIDTH 14 0
BBX 12 15 1 -3
BITMAP
1980
1980
1000
C070
C070
C070
C070
C070
E070
FFF0
7FF0
0070
0070
07F0
07E0
ENDCHAR
STARTCHAR 0100
ENCODING 256
SWIDTH 1020 0
DWIDTH 17 0
BBX 17 16 0 0
BITMAP
0FF800
0FF800
000000
000000
01C000
01E000
03E000
077000
063800
0E3800
1C1C00
1FFC00
3FFE00
300700
700700
E00380
ENDCHAR
STARTCHAR 0101
ENCODING 257
SWIDTH 840 0
DWIDTH 14 0
BBX 12 13 1 0
BITMAP
3FE0
3FE0
0000
0000
03E0
03F0
0070
3FF0
FFF0
C030
C070
FFF0
7FE0
ENDCHAR
STARTCHAR 0102
ENCODING 258
SWIDTH 1020 0
DWIDTH 17 0
BBX 17 17 0 0
BITMAP
063000
063000
07F000
03F000
000000
01C000
01E000
03E000
077000
063800
0E3800
1C1C00
1FFC00
3FFE00
300700
700700
E00380
ENDCHAR
STARTCHAR 0103
ENCODING 259
SWIDTH 840 0
DWIDTH 14 0
BBX 12 14 1 0
BITMAP
18C0
18C0
1FC0
0700
0000
03E0
03F0
0070
3FF0
FFF0
C030
C070
FFF0
7FE0
ENDCHAR
STARTCHAR 0104
ENCODING 260
SWIDTH 1020 0
DWIDTH 17 0
BBX 18 16 0 -4
BITMAP
01C000
01E000
03E000
077000
063800
0E3800
1C1C00
1FFC00
3FFE00
300700
700700
E00380
000300
000600
0007C0
0007C0
ENDCHAR
STARTCHAR 0105
ENCODING 261
SWIDTH 840 0
DWIDTH 14 0
BBX 12 13 1 -4
BITMAP
03E0
03F0
0070
3FF0
FFF0
C030
C070
FFF0
7FE0
0600
0C00
0F80
0780
ENDCHAR
STARTCHAR 0106
ENCODING 262
SWIDTH 840 0
DWIDTH 14 0
BBX 12 17 1 0
BITMAP
0380
0300
0600
0600
0000
7FF0
FFF0
E000
C000
C000
C000
C000
C000
C000
E000
FFF0
7FF0
ENDCHAR
STARTCHAR 0107
ENCODING 263
SWIDTH 780 0
DWIDTH 13 0
BBX 11 14 1 0
BITMAP
0300
0600
0600
0C00
0000
7FE0
FFE0
E000
C000
C000
C000
E000
FFE0
7FE0
ENDCHAR
STARTCHAR 010A
ENCODING 266
SWIDTH 840 0
DWIDTH 14 0
BBX 12 15 1 0
BITMAP
0700
0700
0200
7FF0
FFF0
E000
C000
C000
C000
C000
C000
C000
E000
FFF0
7FF0
ENDCHAR
STARTCHAR 010B
ENCODING 267
SWIDTH 780 0
DWIDTH 13 0
BBX 11 12 1 0
BITMAP
0600
0600
0400
7FE0
FFE0
E000
C000
C000
C000
E000
FFE0
7FE0
ENDCHAR
STARTCHAR 010C
ENCODING 268
SWIDTH 840 0
DWIDTH 14 0
BBX 12 17 1 0
BITMAP
38C0
1D80
0F80
0700
0000
7FF0
FFF0
E000
C000
C000
C000
C000
C000
C000
E000
FFF0
7FF0
ENDCHAR
STARTCHAR 010D
ENCODING 269
SWIDTH 780 0
DWIDTH 13 0
BBX 11 14 1 0
BITMAP
31C0
1B80
0F00
0E00
0000
7FE0
FFE0
E000
C000
C000
C000
E000
FFE0
7FE0
ENDCHAR
STARTCHAR 010E
ENCODING 270
SWIDTH 900 0
DWIDTH 15 0
BBX 13 17 1 0
BITMAP
38C0
1D80
0F80
0700
0000
FFF0
FFF8
E038
E018
E018
E018
E018
E018
E018
E038
FFF8
FFF0
ENDCHAR
STARTCHAR 010F
ENCODING 271
SWIDTH 960 0
DWIDTH 16 0
BBX 15 12 1 0
BITMAP
0076
0076
0076
7FF6
FFF0
E070
C070
C070
C070
E070
FFE0
7FC0
ENDCHAR
STARTCHAR 0110
ENCODING 272
SWIDTH 960 0
DWIDTH 16 0
BBX 15 12 0 0
BITMAP
7FF8
7FFC
700E
700E
700E
FF8E
FF8E
700E
700E
700E
7FFC
7FF8
ENDCHAR
STARTCHAR 0111
ENCODING 273
SWIDTH 840 0
DWIDTH 14 0
BBX 13 13 1 0
BITMAP
0070
0FF8
0FF8
0070
7FF0
FFF0
E070
C070
C070
C070
E070
FFE0
7FC0
ENDCHAR
STARTCHAR 0112
ENCODING 274
SWIDTH 840 0
DWIDTH 14 0
BBX 12 16 1 0
BITMAP
3FE0
3FE0
0000
0000
7E00
FE00
E000
C000
C000
FFF0
FFF0
C000
C000
E000
FFF0
7FF0
ENDCHAR
STARTCHAR 0113
ENCODING 275
SWIDTH 780 0
DWIDTH 13 0
BBX 12 13 1 0
BITMAP
7FC0
7FC0
0000
0000
7FE0
FFF0
E070
C070
FFF0
FFF0
C000
FE00
7E00
ENDCHAR
STARTCHAR 0114
ENCODING 276
SWIDTH 840 0
DWIDTH 14 0
BBX 12 17 1 0
BITMAP
18C0
18C0
1FC0
0700
0000
7E00
FE00
E000
C000
C000
FFF0
FFF0
C000
C000
E000
FFF0
7FF0
ENDCHAR
STARTCHAR 0115
ENCODING 277
SWIDTH 780 0
DWIDTH 13 0
BBX 12 14 1 0
BITMAP
3080
3180
3F80
0E00
0000
7FE0
FFF0
E070
C070
FFF0
FFF0
C000
FE00
7E00
ENDCHAR
STARTCHAR 0116
ENCODING 278
SWIDTH 840 0
DWIDTH 14 0
BBX 12 15 1 0
BITMAP
0700
0700
0200
7E00
FE00
E000
C000
C000
FFF0
FFF0
C000
C000
E000
FFF0
7FF0
ENDCHAR
STARTCHAR 0117
ENCODING 279
SWIDTH 780 0
DWIDTH 13 0
BBX 12 12 1 0
BITMAP
0600
0E00
0400
7FE0
FFF0
E070
C070
FFF0
FFF0
C000
FE00
7E00
ENDCHAR
STARTCHAR 0118
ENCODING 280
SWIDTH 840 0
DWIDTH 14 0
BBX 13 16 1 -4
BITMAP
7E00
FE00
E000
C000
C000
FFF0
FFF0
C000
C000
E000
FFF0
7FF0
0060
00C0
00F8
0078
ENDCHAR
STARTCHAR 0119
ENCODING 281
SWIDTH 780 0
DWIDTH 13 0
BBX 12 13 1 -4
BITMAP
7FE0
FFF0
E070
C070
FFF0
FFF0
C000
FE00
7E00
1800
1800
1E00
1E00
ENDCHAR
STARTCHAR 011A
ENCODING 282
SWIDTH 840 0
DWIDTH 14 0
BBX 12 17 1 0
BITMAP
18C0
1D80
0F80
0700
0000
7E00
FE00
E000
C000
C000
FFF0
FFF0
C000
C000
E000
FFF0
7FF0
ENDCHAR
STARTCHAR 011B
ENCODING 283
SWIDTH 780 0
DWIDTH 13 0
BBX 12 14 1 0
BITMAP
31C0
1B80
0F00
0E00
0000
7FE0
FFF0
E070
C070
FFF0
FFF0
C000
FE00
7E00
ENDCHAR
STARTCHAR 011E
ENCODING 286
SWIDTH 900 0
DWIDTH 15 0
BBX 13 17 1 0
BITMAP
18C0
18C0
1FC0
0700
0000
7E00
FE00
E000
C000
C000
C018
C018
C018
C018
E038
FFF8
7FF0
ENDCHAR
STARTCHAR 011F
ENCODING 287
SWIDTH 840 0
DWIDTH 14 0
BBX 12 17 1 -3
BITMAP
3080
3180
3F80
0F00
0000
7FC0
FFE0
E070
C070
C070
C070
FFF0
7FF0
0070
0070
07E0
07E0
ENDCHAR
STARTCHAR 0120
ENCODING 288
SWIDTH 900 0
DWIDTH 15 0
BBX 13 15 1 0
BITMAP
0700
0700
0200
7E00
FE00
E000
C000
C000
C018
C018
C018
C018
E038
FFF8
7FF0
ENDCHAR
STARTCHAR 0121
ENCODING 289
SWIDTH 840 0
DWIDTH 14 0
BBX 12 15 1 -3
BITMAP
0600
0600
0400
7FC0
FFE0
E070
C070
C070
C070
FFF0
7FF0
0070
0070
07E0
07E0
ENDCHAR
STARTCHAR 0122
ENCODING 290
SWIDTH 900 0
DWIDTH 15 0
BBX 13 16 1 -4
BITMAP
7E00
FE00
E000
C000
C000
C018
C018
C018
C018
E038
FFF8
7FF0
0000
0700
0600
0600
ENDCHAR
STARTCHAR 0123
ENCODING 291
SWIDTH 840 0
DWIDTH 14 0
BBX 12 16 1 -3
BITMAP
0600
0600
0600
0000
7FC0
FFE0
E070
C070
C070
C070
FFF0
7FF0
0070
0070
07E0
07E0
ENDCHAR
STARTCHAR 0126
ENCODING 294
SWIDTH 900 0
DWIDTH 15 0
BBX 13 12 1 0
BITMAP
E018
FFF8
FFF8
E018
E018
FFF8
FFF8
E018
E018
E018
E018
E018
ENDCHAR
STARTCHAR 0127
ENCODING 295
SWIDTH 840 0
DWIDTH 14 0
BBX 13 13 0 0
BITMAP
6000
FF80
FF80
6000
7FF0
7FF0
6038
6038
6038
6038
6038
6038
6038
ENDCHAR
STARTCHAR 012A
ENCODING 298
SWIDTH 300 0
DWIDTH 5 0
BBX 9 16 -2 0
BITMAP
FF80
FF80
0000
0000
1C00
1C00
1C00
1C00
1C00
1C00
1C00
1C00
1C00
1C00
1C00
1C00
ENDCHAR
STARTCHAR 012B
ENCODING 299
SWIDTH 420 0
DWIDTH 7 0
BBX 9 13 -1 0
BITMAP
FF80
FF80
0000
0000
1C00
1C00
1C00
1C00
1C00
1C00
1C00
1C00
1C00
ENDCHAR
STARTCHAR 012C
ENCODING 300
SWIDTH 300 0
DWIDTH 5 0
BBX 7 17 -1 0
BITMAP
86
C6
FE
38
00
38
38
38
38
38
38
38
38
38
38
38
38
ENDCHAR
STARTCHAR 012D
ENCODING 301
SWIDTH 300 0
DWIDTH 5 0
BBX 7 14 -1 0
BITMAP
C6
C6
FE
38
00
38
38
38
38
38
38
38
38
38
ENDCHAR
STARTCHAR 012E
ENCODING 302
SWIDTH 300 0
DWIDTH 5 0
BBX 5 16 -1 -4
BITMAP
38
38
38
38
38
38
38
38
38
38
38
38
60
E0
F8
78
ENDCHAR
STARTCHAR 012F
ENCODING 303
SWIDTH 300 0
DWIDTH 5 0
BBX 5 16 -1 -4
BITMAP
30
38
10
38
38
38
38
38
38
38
38
38
60
C0
F8
78
ENDCHAR
STARTCHAR 0130
ENCODING 304
SWIDTH 300 0
DWIDTH 5 0
BBX 3 15 1 0
BITMAP
C0
E0
40
E0
E0
E0
E0
E0
E0
E0
E0
E0
E0
E0
E0
ENDCHAR
STARTCHAR 0131
ENCODING 305
SWIDTH 300 0
DWIDTH 5 0
BBX 3 9 1 0
BITMAP
E0
E0
E0
E0
E0
E0
E0
E0
E0
ENDCHAR
STARTCHAR 0132
ENCODING 306
SWIDTH 780 0
DWIDTH 13 0
BBX 11 12 1 0
BITMAP
E060
E060
E060
E060
E060
E060
E060
E060
E060
E0E0
EFE0
EFC0
ENDCHAR
STARTCHAR 0133
ENCODING 307
SWIDTH 540 0
DWIDTH 9 0
BBX 7 15 1 -3
BITMAP
C6
E6
40
E6
E6
E6
E6
E6
E6
E6
E6
E6
06
1E
1C
ENDCHAR
STARTCHAR 0136
ENCODING 310
SWIDTH 780 0
DWIDTH 13 0
BBX 12 16 1 -4
BITMAP
E0F0
E1C0
E380
E700
EE00
FC00
FC00
EE00
E780
E3C0
E1E0
E0F0
0000
0600
0400
0C00
ENDCHAR
STARTCHAR 0137
ENCODING 311
SWIDTH 720 0
DWIDTH 12 0
BBX 10 16 1 -4
BITMAP
C000
C000
C000
C1C0
C380
C700
DC00
FC00
DE00
C700
C380
C1C0
0000
0C00
0C00
0C00
ENDCHAR
STARTCHAR 0139
ENCODING 313
SWIDTH 780 0
DWIDTH 13 0
BBX 11 17 1 0
BITMAP
3000
6000
6000
C000
0000
C000
C000
C000
C000
C000
C000
C000
C000
C000
E000
FFE0
7FE0
ENDCHAR
STARTCHAR 013A
ENCODING 314
SWIDTH 300 0
DWIDTH 5 0
BBX 4 16 1 0
BITMAP
70
60
C0
00
E0
E0
E0
E0
E0
E0
E0
E0
E0
E0
E0
E0
ENDCHAR
STARTCHAR 013B
ENCODING 315
SWIDTH 780 0
DWIDTH 13 0
BBX 11 16 1 -4
BITMAP
C000
C000
C000
C000
C000
C000
C000
C000
C000
E000
FFE0
7FE0
0000
0600
0600
0400
ENDCHAR
STARTCHAR 013C
ENCODING 316
SWIDTH 300 0
DWIDTH 5 0
BBX 3 16 1 -4
BITMAP
E0
E0
E0
E0
E0
E0
E0
E0
E0
E0
E0
E0
00
C0
C0
C0
ENDCHAR
STARTCHAR 013D
ENCODING 317
SWIDTH 780 0
DWIDTH 13 0
BBX 11 12 1 0
BITMAP
C300
C300
C300
C200
C000
C000
C000
C000
C000
E000
FFE0
7FE0
ENDCHAR
STARTCHAR 013E
ENCODING 318
SWIDTH 420 0
DWIDTH 7 0
BBX 6 12 1 0
BITMAP
EC
EC
EC
F8
E0
E0
E0
E0
E0
E0
E0
E0
ENDCHAR
STARTCHAR 013F
ENCODING 319
SWIDTH 780 0
DWIDTH 13 0
BBX 11 12 1 0
BITMAP
C000
C000
C000
C000
C300
C700
C200
C000
C000
E000
FFE0
7FE0
ENDCHAR
STARTCHAR 0140
ENCODING 320
SWIDTH 420 0
DWIDTH 7 0
BBX 6 12 1 0
BITMAP
E0
E0
E0
E0
E0
FC
FC
E0
E0
E0
E0
E0
ENDCHAR
STARTCHAR 0141
ENCODING 321
SWIDTH 780 0
DWIDTH 13 0
BBX 13 12 0 0
BITMAP
7000
7000
7F80
FF80
F000
7000
7000
7000
7000
3800
3FF8
1FF8
ENDCHAR
STARTCHAR 0142
ENCODING 322
SWIDTH 300 0
DWIDTH 5 0
BBX 5 12 0 0
BITMAP
70
70
70
F8
F8
70
70
70
70
70
70
70
ENDCHAR
STARTCHAR 0143
ENCODING 323
SWIDTH 900 0
DWIDTH 15 0
BBX 13 17 1 0
BITMAP
0180
0380
0300
0600
0000
E018
F018
F818
FC18
DE18
CF18
C798
C3D8
C1F8
C0F8
C078
C038
ENDCHAR
STARTCHAR 0144
ENCODING 324
SWIDTH 840 0
DWIDTH 14 0
BBX 12 14 1 0
BITMAP
0380
0300
0600
0600
0000
7FC0
FFE0
E070
C070
C070
C070
C070
C070
C070
ENDCHAR
STARTCHAR 0145
ENCODING 325
SWIDTH 900 0
DWIDTH 15 0
BBX 13 15 1 -3
BITMAP
E018
F018
F818
FC18
DE18
CF18
C798
C3D8
C1F8
C0F8
C078
C038
0300
0600
0600
ENDCHAR
STARTCHAR 0146
ENCODING 326
SWIDTH 840 0
DWIDTH 14 0
BBX 12 13 1 -4
BITMAP
7FC0
FFE0
E070
C070
C070
C070
C070
C070
C070
0000
0600
0600
0400
ENDCHAR
STARTCHAR 0147
ENCODING 327
SWIDTH 900 0
DWIDTH 15 0
BBX 13 17 1 0
BITMAP
18E0
1CC0
0D80
0780
0700
E018
F018
F818
FC18
DE18
CF18
C798
C3D8
C1F8
C0F8
C078
C038
ENDCHAR
STARTCHAR 0148
ENCODING 328
SWIDTH 840 0
DWIDTH 14 0
BBX 12 14 1 0
BITMAP
31C0
1B80
0F00
0E00
0000
7FC0
FFE0
E070
C070
C070
C070
C070
C070
C070
ENDCHAR
STARTCHAR 014A
ENCODING 330
SWIDTH 900 0
DWIDTH 15 0
BBX 13 16 1 -4
BITMAP
E018
F018
F818
FC18
DE18
CF18
C798
C3D8
C1F8
C0F8
C078
C038
0018
0018
0078
0070
ENDCHAR
STARTCHAR 014B
ENCODING 331
SWIDTH 840 0
DWIDTH 14 0
BBX 12 13 1 -4
BITMAP
7FC0
FFE0
E070
C070
C070
C070
C070
C070
C070
0070
0070
01E0
01C0
ENDCHAR
STARTCHAR 014C
ENCODING 332
SWIDTH 900 0
DWIDTH 15 0
BBX 13 16 1 0
BITMAP
3FE0
3FE0
0000
0000
7FE0
FFF0
E038
C038
C038
C038
C038
C038
C038
E038
FFF0
7FE0
ENDCHAR
STARTCHAR 014D
ENCODING 333
SWIDTH 840 0
DWIDTH 14 0
BBX 12 13 1 0
BITMAP
7FC0
7FC0
0000
0000
7FC0
FFE0
E060
C070
C070
C070
E060
FFE0
7FC0
ENDCHAR
STARTCHAR 014E
ENCODING 334
SWIDTH 900 0
DWIDTH 15 0
BBX 13 17 1 0
BITMAP
18C0
18C0
1FC0
0700
0000
7FE0
FFF0
E038
C038
C038
C038
C038
C038
C038
E038
FFF0
7FE0
ENDCHAR
STARTCHAR 014F
ENCODING 335
SWIDTH 840 0
DWIDTH 14 0
BBX 12 14 1 0
BITMAP
3080
3180
3F80
0E00
0000
7FC0
FFE0
E060
C070
C070
C070
E060
FFE0
7FC0
ENDCHAR
STARTCHAR 0150
ENCODING 336
SWIDTH 900 0
DWIDTH 15 0
BBX 13 17 1 0
BITMAP
0E70
0CE0
18C0
1980
0000
7FE0
FFF0
E038
C038
C038
C038
C038
C038
C038
E038
FFF0
7FE0
ENDCHAR
STARTCHAR 0151
ENCODING 337
SWIDTH 840 0
DWIDTH 14 0
BBX 12 14 1 0
BITMAP
0CE0
1CC0
1980
3180
0000
7FC0
FFE0
E060
C070
C070
C070
E060
FFE0
7FC0
ENDCHAR
STARTCHAR 0152
ENCODING 338
SWIDTH 1440 0
DWIDTH 24 0
BBX 22 12 1 0
BITMAP
7FEF80
FFFF80
E03800
C03800
C03800
C03FFC
C03FFC
C03800
C03800
E03800
FFFFFC
7FEFFC
ENDCHAR
STARTCHAR 0153
ENCODING 339
SWIDTH 1320 0
DWIDTH 22 0
BBX 21 9 1 0
BITMAP
7FFFF0
FFFFF0
E0F038
C06038
C07FF8
C07FF8
E06000
FFFF00
7FFF00
ENDCHAR
STARTCHAR 0154
ENCODING 340
SWIDTH 900 0
DWIDTH 15 0
BBX 13 17 1 0
BITMAP
0180
0380
0300
0600
0000
FFF0
FFF8
C038
C018
C018
C018
FFF8
FFF0
CF00
C780
C1E0
C0F8
ENDCHAR
STARTCHAR 0155
ENCODING 341
SWIDTH 420 0
DWIDTH 7 0
BBX 6 14 1 0
BITMAP
0C
1C
18
30
00
7C
FC
E0
C0
C0
C0
C0
C0
C0
ENDCHAR
STARTCHAR 0156
ENCODING 342
SWIDTH 900 0
DWIDTH 15 0
BBX 13 16 1 -4
BITMAP
FFF0
FFF8
C038
C018
C018
C018
FFF8
FFF0
CF00
C780
C1E0
C0F8
0000
0300
0600
0600
ENDCHAR
STARTCHAR 0157
ENCODING 343
SWIDTH 420 0
DWIDTH 7 0
BBX 6 13 1 -4
BITMAP
7C
FC
E0
C0
C0
C0
C0
C0
C0
00
C0
C0
C0
ENDCHAR
STARTCHAR 0158
ENCODING 344
SWIDTH 900 0
DWIDTH 15 0
BBX 13 17 1 0
BITMAP
38C0
1D80
0F00
0700
0000
FFF0
FFF8
C038
C018
C018
C018
FFF8
FFF0
CF00
C780
C1E0
C0F8
ENDCHAR
STARTCHAR 0159
ENCODING 345
SWIDTH 420 0
DWIDTH 7 0
BBX 8 14 0 0
BITMAP
E3
76
3E
1C
00
3E
7E
70
60
60
60
60
60
60
ENDCHAR
STARTCHAR 015A
ENCODING 346
SWIDTH 780 0
DWIDTH 13 0
BBX 12 17 1 0
BITMAP
0380
0300
0600
0E00
0000
7C00
FC00
C000
C000
C000
FFE0
7FF0
0070
0030
0070
FFF0
FFE0
ENDCHAR
STARTCHAR 015B
ENCODING 347
SWIDTH 720 0
DWIDTH 12 0
BBX 11 14 1 0
BITMAP
0700
0600
0E00
0C00
0000
FC00
FC00
C000
FF80
FFC0
00E0
00E0
FFE0
FFC0
ENDCHAR
STARTCHAR 015E
ENCODING 350
SWIDTH 780 0
DWIDTH 13 0
BBX 12 16 1 -4
BITMAP
7C00
FC00
C000
C000
C000
FFE0
7FF0
0070
0030
0070
FFF0
FFE0
0000
0600
0600
0C00
ENDCHAR
STARTCHAR 015F
ENCODING 351
SWIDTH 720 0
DWIDTH 12 0
BBX 11 13 1 -4
BITMAP
FC00
FC00
C000
FF80
FFC0
00E0
00E0
FFE0
FFC0
0000
0C00
0C00
0C00
ENDCHAR
STARTCHAR 0160
ENCODING 352
SWIDTH 780 0
DWIDTH 13 0
BBX 12 17 1 0
BITMAP
31C0
1B80
0F00
0E00
0000
7C00
FC00
C000
C000
C000
FFE0
7FF0
0070
0030
0070
FFF0
FFE0
ENDCHAR
STARTCHAR 0161
ENCODING 353
SWIDTH 720 0
DWIDTH 12 0
BBX 11 14 1 0
BITMAP
7180
3B00
1E00
0E00
0000
FC00
FC00
C000
FF80
FFC0
00E0
00E0
FFE0
FFC0
ENDCHAR
STARTCHAR 0162
ENCODING 354
SWIDTH 780 0
DWIDTH 13 0
BBX 12 16 0 -4
BITMAP
FFF0
FFF0
0700
0700
0700
0700
0700
0700
0700
0700
0700
0700
0000
0600
0600
0600
ENDCHAR
STARTCHAR 0163
ENCODING 355
SWIDTH 420 0
DWIDTH 7 0
BBX 7 16 0 -4
BITMAP
70
70
70
FE
FE
70
70
70
70
70
70
70
00
30
60
60
ENDCHAR
STARTCHAR 0164
ENCODING 356
SWIDTH 780 0
DWIDTH 13 0
BBX 12 17 0 0
BITMAP
38C0
1D80
0F80
0700
0000
FFF0
FFF0
0700
0700
0700
0700
0700
0700
0700
0700
0700
0700
ENDCHAR
STARTCHAR 0165
ENCODING 357
SWIDTH 600 0
DWIDTH 10 0
BBX 10 12 0 0
BITMAP
71C0
7180
7180
FF80
FE00
7000
7000
7000
7000
7000
7000
7000
ENDCHAR
STARTCHAR 0166
ENCODING 358
SWIDTH 780 0
DWIDTH 13 0
BBX 12 12 0 0
BITMAP
FFF0
FFF0
0700
0700
0700
1FC0
1FC0
0700
0700
0700
0700
0700
ENDCHAR
STARTCHAR 0167
ENCODING 359
SWIDTH 420 0
DWIDTH 7 0
BBX 7 12 0 0
BITMAP
70
70
70
FE
FE
70
70
FC
FC
70
70
70
ENDCHAR
STARTCHAR 0168
ENCODING 360
SWIDTH 900 0
DWIDTH 15 0
BBX 13 16 1 0
BITMAP
3FE0
3FE0
0000
0000
C038
C038
C038
C038
C038
C038
C038
C038
E038
E038
FFF0
7FE0
ENDCHAR
STARTCHAR 0169
ENCODING 361
SWIDTH 840 0
DWIDTH 14 0
BBX 12 13 1 0
BITMAP
7FC0
7FC0
0000
0000
C070
C070
C070
C070
C070
C070
E060
FFE0
7FC0
ENDCHAR
STARTCHAR 016A
ENCODING 362
SWIDTH 900 0
DWIDTH 15 0
BBX 13 16 1 0
BITMAP
3FE0
3FE0
0000
0000
C038
C038
C038
C038
C038
C038
C038
C038
E038
E038
FFF0
7FE0
ENDCHAR
STARTCHAR 016B
ENCODING 363
SWIDTH 840 0
DWIDTH 14 0
BBX 12 13 1 0
BITMAP
7FC0
7FC0
0000
0000
C070
C070
C070
C070
C070
C070
E060
FFE0
7FC0
ENDCHAR
STARTCHAR 016C
ENCODING 364
SWIDTH 900 0
DWIDTH 15 0
BBX 13 17 1 0
BITMAP
18C0
18C0
1FC0
0700
0000
C038
C038
C038
C038
C038
C038
C038
C038
E038
E038
FFF0
7FE0
ENDCHAR
STARTCHAR 016D
ENCODING 365
SWIDTH 840 0
DWIDTH 14 0
BBX 12 14 1 0
BITMAP
3080
3180
3F80
0E00
0000
C070
C070
C070
C070
C070
C070
E060
FFE0
7FC0
ENDCHAR
STARTCHAR 016E
ENCODING 366
SWIDTH 900 0
DWIDTH 15 0
BBX 13 17 1 0
BITMAP
0F80
0880
0880
0880
0F80
C038
C038
C038
C038
C038
C038
C038
C038
E038
E038
FFF0
7FE0
ENDCHAR
STARTCHAR 016F
ENCODING 367
SWIDTH 840 0
DWIDTH 14 0
BBX 12 14 1 0
BITMAP
1F00
1180
1180
1180
1F00
C070
C070
C070
C070
C070
C070
E060
FFE0
7FC0
ENDCHAR
STARTCHAR 0170
ENCODING 368
SWIDTH 900 0
DWIDTH 15 0
BBX 13 17 1 0
BITMAP
0E70
0CE0
18C0
1980
0000
C038
C038
C038
C038
C038
C038
C038
C038
E038
E038
FFF0
7FE0
ENDCHAR
STARTCHAR 0171
ENCODING 369
SWIDTH 840 0
DWIDTH 14 0
BBX 12 14 1 0
BITMAP
0CE0
1CC0
1980
3180
0000
C070
C070
C070
C070
C070
C070
E060
FFE0
7FC0
ENDCHAR
STARTCHAR 0172
ENCODING 370
SWIDTH 900 0
DWIDTH 15 0
BBX 13 16 1 -4
BITMAP
C038
C038
C038
C038
C038
C038
C038
C038
E038
E038
FFF0
7FE0
0600
0E00
0F80
0780
ENDCHAR
STARTCHAR 0173
ENCODING 371
SWIDTH 840 0
DWIDTH 14 0
BBX 12 13 1 -4
BITMAP
C070
C070
C070
C070
C070
C070
E060
FFE0
7FC0
0C00
0C00
0F00
0F00
ENDCHAR
STARTCHAR 0174
ENCODING 372
SWIDTH 1320 0
DWIDTH 22 0
BBX 22 17 0 0
BITMAP
003000
007800
007C00
00CC00
01C600
E0381C
70781C
707838
307C38
38EC30
38CE70
19C660
1D87E0
0F87E0
0F03C0
0F03C0
060180
ENDCHAR
STARTCHAR 0175
ENCODING 373
SWIDTH 1080 0
DWIDTH 18 0
BBX 18 15 0 0
BITMAP
00C000
01E000
01F000
033000
071800
E0C0C0
60E1C0
71E180
71F380
33B300
3B3B00
1F1F00
1E1E00
0E1E00
0C0C00
ENDCHAR
STARTCHAR 0176
ENCODING 374
SWIDTH 960 0
DWIDTH 16 0
BBX 14 17 1 0
BITMAP
0300
0780
0CC0
1CE0
0000
E01C
7038
3870
1CE0
0FC0
0780
0300
0300
0300
0300
0300
0300
ENDCHAR
STARTCHAR 0177
ENCODING 375
SWIDTH 840 0
DWIDTH 14 0
BBX 12 17 1 -3
BITMAP
0600
0F00
1B80
31C0
0000
C070
C070
C070
C070
C070
E070
FFF0
7FF0
0070
0070
07F0
07E0
ENDCHAR
STARTCHAR 0178
ENCODING 376
SWIDTH 960 0
DWIDTH 16 0
BBX 14 15 1 0
BITMAP
0CC0
0CC0
0840
E01C
7038
3870
1CE0
0FC0
0780
0300
0300
0300
0300
0300
0300
ENDCHAR
STARTCHAR 0179
ENCODING 377
SWIDTH 840 0
DWIDTH 14 0
BBX 12 17 1 0
BITMAP
0380
0300
0700
0600
0000
FFF0
FFF0
00E0
01C0
0380
0700
0E00
1C00
7800
F000
FFF0
FFF0
ENDCHAR
STARTCHAR 017A
ENCODING 378
SWIDTH 720 0
DWIDTH 12 0
BBX 10 14 1 0
BITMAP
0700
0600
0C00
0C00
0000
FFC0
FFC0
0380
0E00
1C00
3800
7000
FFC0
FFC0
ENDCHAR
STARTCHAR 017B
ENCODING 379
SWIDTH 840 0
DWIDTH 14 0
BBX 12 15 1 0
BITMAP
0600
0600
0400
FFF0
FFF0
00E0
01C0
0380
0700
0E00
1C00
7800
F000
FFF0
FFF0
ENDCHAR
STARTCHAR 017C
ENCODING 380
SWIDTH 720 0
DWIDTH 12 0
BBX 10 12 1 0
BITMAP
1C00
1C00
0800
FFC0
FFC0
0380
0E00
1C00
3800
7000
FFC0
FFC0
ENDCHAR
STARTCHAR 017D
ENCODING 381
SWIDTH 840 0
DWIDTH 14 0
BBX 12 17 1 0
BITMAP
38C0
1980
0F00
0600
0000
FFF0
FFF0
00E0
01C0
0380
0700
0E00
1C00
7800
F000
FFF0
FFF0
ENDCHAR
STARTCHAR 017E
ENCODING 382
SWIDTH 720 0
DWIDTH 12 0
BBX 10 14 1 0
BITMAP
6380
3300
1E00
1C00
0000
FFC0
FFC0
0380
0E00
1C00
3800
7000
FFC0
FFC0
ENDCHAR
STARTCHAR 0192
ENCODING 402
SWIDTH 540 0
DWIDTH 9 0
BBX 9 14 0 -2
BITMAP
0380
0780
0C00
0C00
3F00
3F00
0C00
1800
1800
1800
1800
3800
F000
E000
ENDCHAR
STARTCHAR 0218
ENCODING 536
SWIDTH 780 0
DWIDTH 13 0
BBX 12 16 1 -4
BITMAP
7C00
FC00
C000
C000
C000
FFE0
7FF0
0070
0030
0070
FFF0
FFE0
0000
0600
0600
0C00
ENDCHAR
STARTCHAR 0219
ENCODING 537
SWIDTH 720 0
DWIDTH 12 0
BBX 11 13 1 -4
BITMAP
FC00
FC00
C000
FF80
FFC0
00E0
00E0
FFE0
FFC0
0000
0C00
0C00
0C00
ENDCHAR
STARTCHAR 021A
ENCODING 538
SWIDTH 780 0
DWIDTH 13 0
BBX 12 16 0 -4
BITMAP
FFF0
FFF0
0700
0700
0700
0700
0700
0700
0700
0700
0700
0700
0000
0600
0600
0600
ENDCHAR
STARTCHAR 021B
ENCODING 539
SWIDTH 420 0
DWIDTH 7 0
BBX 7 16 0 -4
BITMAP
70
70
70
FE
FE
70
70
70
70
70
70
70
00
30
60
60
ENDCHAR
STARTCHAR 02C6
ENCODING 710
SWIDTH 660 0
DWIDTH 11 0
BBX 8 4 1 10
BITMAP
1C
3C
76
E3
ENDCHAR
STARTCHAR 02C7
ENCODING 711
SWIDTH 660 0
DWIDTH 11 0
BBX 8 4 1 10
BITMAP
E3
76
3C
1C
ENDCHAR
STARTCHAR 02D8
ENCODING 728
SWIDTH 540 0
DWIDTH 9 0
BBX 7 4 1 10
BITMAP
C6
C6
FE
38
ENDCHAR
STARTCHAR 02D9
ENCODING 729
SWIDTH 240 0
DWIDTH 4 0
BBX 2 3 1 9
BITMAP
C0
C0
40
ENDCHAR
STARTCHAR 02DA
ENCODING 730
SWIDTH 480 0
DWIDTH 8 0
BBX 6 5 1 9
BITMAP
F8
8C
8C
8C
F8
ENDCHAR
STARTCHAR 02DB
ENCODING 731
SWIDTH 420 0
DWIDTH 7 0
BBX 5 4 1 -4
BITMAP
60
C0
F8
F8
ENDCHAR
STARTCHAR 02DC
ENCODING 732
SWIDTH 660 0
DWIDTH 11 0
BBX 9 2 1 11
BITMAP
FF80
FF80
ENDCHAR
STARTCHAR 02DD
ENCODING 733
SWIDTH 660 0
DWIDTH 11 0
BBX 9 4 1 10
BITMAP
3380
7300
6600
C600
ENDCHAR
STARTCHAR 0394
ENCODING 916
SWIDTH 1020 0
DWIDTH 17 0
BBX 17 12 0 0
BITMAP
01C000
01E000
03E000
077000
073800
0E3800
1C1C00
1C1C00
380E00
380700
7FFF00
FFFF80
ENDCHAR
STARTCHAR 039B
ENCODING 923
SWIDTH 1020 0
DWIDTH 17 0
BBX 17 12 0 0
BITMAP
01C000
03E000
03E000
077000
077000
0E3800
1C1C00
1C1C00
380E00
380E00
700700
E00380
ENDCHAR
STARTCHAR 03A9
ENCODING 937
SWIDTH 900 0
DWIDTH 15 0
BBX 13 12 1 0
BITMAP
7FF0
FFF8
E038
C038
C038
C038
C038
E030
6070
3060
F078
F078
ENDCHAR
STARTCHAR 03BC
ENCODING 956
SWIDTH 840 0
DWIDTH 14 0
BBX 12 12 1 -3
BITMAP
C070
C070
C070
C070
C070
C070
C070
FFE0
FFC0
C000
C000
C000
ENDCHAR
STARTCHAR 03C0
ENCODING 960
SWIDTH 840 0
DWIDTH 14 0
BBX 12 9 1 0
BITMAP
FFF0
FFF0
C070
C070
C070
C070
C070
C070
C070
ENDCHAR
STARTCHAR 1E80
ENCODING 7808
SWIDTH 1320 0
DWIDTH 22 0
BBX 22 17 0 0
BITMAP
00E000
006000
003000
003000
000000
E0381C
70781C
707838
307C38
38EC30
38CE70
19C660
1D87E0
0F87E0
0F03C0
0F03C0
060180
ENDCHAR
STARTCHAR 1E81
ENCODING 7809
SWIDTH 1080 0
DWIDTH 18 0
BBX 18 15 0 0
BITMAP
038000
018000
00C000
00C000
000000
E0C0C0
60E1C0
71E180
71F380
33B300
3B3B00
1F1F00
1E1E00
0E1E00
0C0C00
ENDCHAR
STARTCHAR 1E82
ENCODING 7810
SWIDTH 1320 0
DWIDTH 22 0
BBX 22 17 0 0
BITMAP
000C00
001800
003800
003000
000000
E0381C
70781C
707838
307C38
38EC30
38CE70
19C660
1D87E0
0F87E0
0F03C0
0F03C0
060180
ENDCHAR
STARTCHAR 1E83
ENCODING 7811
SWIDTH 1080 0
DWIDTH 18 0
BBX 18 15 0 0
BITMAP
007000
006000
00E000
00C000
000000
E0C0C0
60E1C0
71E180
71F380
33B300
3B3B00
1F1F00
1E1E00
0E1E00
0C0C00
ENDCHAR
STARTCHAR 1E84
ENCODING 7812
SWIDTH 1320 0
DWIDTH 22 0
BBX 22 15 0 0
BITMAP
00CE00
00CE00
000400
E0381C
70781C
707838
307C38
38EC30
38CE70
19C660
1D87E0
0F87E0
0F03C0
0F03C0
060180
ENDCHAR
STARTCHAR 1E85
ENCODING 7813
SWIDTH 1080 0
DWIDTH 18 0
BBX 18 13 0 0
BITMAP
033800
033800
001000
E0C0C0
60E1C0
71E180
71F380
33B300
3B3B00
1F1F00
1E1E00
0E1E00
0C0C00
ENDCHAR
STARTCHAR 1EF2
ENCODING 7922
SWIDTH 960 0
DWIDTH 16 0
BBX 14 17 1 0
BITMAP
0E00
0600
0700
0300
0000
E01C
7038
3870
1CE0
0FC0
0780
0300
0300
0300
0300
0300
0300
ENDCHAR
STARTCHAR 1EF3
ENCODING 7923
SWIDTH 840 0
DWIDTH 14 0
BBX 12 17 1 -3
BITMAP
1C00
0C00
0E00
0600
0000
C070
C070
C070
C070
C070
E070
FFF0
7FF0
0070
0070
07F0
07E0
ENDCHAR
STARTCHAR 2013
ENCODING 8211
SWIDTH 720 0
DWIDTH 12 0
BBX 10 2 1 4
BITMAP
FFC0
FFC0
ENDCHAR
STARTCHAR 2014
ENCODING 8212
SWIDTH 960 0
DWIDTH 16 0
BBX 14 2 1 4
BITMAP
FFFC
FFFC
ENDCHAR
STARTCHAR 2018
ENCODING 8216
SWIDTH 240 0
DWIDTH 4 0
BBX 2 4 1 8
BITMAP
C0
C0
C0
C0
ENDCHAR
STARTCHAR 2019
ENCODING 8217
SWIDTH 240 0
DWIDTH 4 0
BBX 2 4 1 8
BITMAP
C0
C0
C0
C0
ENDCHAR
STARTCHAR 201A
ENCODING 8218
SWIDTH 240 0
DWIDTH 4 0
BBX 2 4 1 -1
BITMAP
C0
C0
C0
C0
ENDCHAR
STARTCHAR 201C
ENCODING 8220
SWIDTH 480 0
DWIDTH 8 0
BBX 6 4 1 8
BITMAP
CC
CC
CC
CC
ENDCHAR
STARTCHAR 201D
ENCODING 8221
SWIDTH 480 0
DWIDTH 8 0
BBX 6 4 1 8
BITMAP
CC
CC
CC
C8
ENDCHAR
STARTCHAR 201E
ENCODING 8222
SWIDTH 480 0
DWIDTH 8 0
BBX 6 4 1 -1
BITMAP
CC
CC
CC
C8
ENDCHAR
STARTCHAR 2020
ENCODING 8224
SWIDTH 420 0
DWIDTH 7 0
BBX 7 12 0 0
BITMAP
10
10
10
FE
10
10
10
10
10
10
10
10
ENDCHAR
STARTCHAR 2021
ENCODING 8225
SWIDTH 420 0
DWIDTH 7 0
BBX 7 12 0 0
BITMAP
10
10
10
FE
10
10
10
10
FE
10
10
10
ENDCHAR
STARTCHAR 2022
ENCODING 8226
SWIDTH 360 0
DWIDTH 6 0
BBX 4 5 1 3
BITMAP
F0
F0
F0
F0
F0
ENDCHAR
STARTCHAR 2026
ENCODING 8230
SWIDTH 1380 0
DWIDTH 23 0
BBX 21 3 1 0
BITMAP
C06030
E07038
C06030
ENDCHAR
STARTCHAR 2030
ENCODING 8240
SWIDTH 1440 0
DWIDTH 24 0
BBX 22 12 1 0
BITMAP
FC3000
C66000
866000
86C000
C78000
FD8000
037EFC
06C68C
06C784
0CC784
18C68C
187EFC
ENDCHAR
STARTCHAR 2039
ENCODING 8249
SWIDTH 300 0
DWIDTH 5 0
BBX 4 8 0 2
BITMAP
10
30
70
E0
E0
70
30
10
ENDCHAR
STARTCHAR 203A
ENCODING 8250
SWIDTH 300 0
DWIDTH 5 0
BBX 4 8 0 2
BITMAP
80
C0
E0
30
30
70
C0
80
ENDCHAR
STARTCHAR 2044
ENCODING 8260
SWIDTH 300 0
DWIDTH 5 0
BBX 9 12 -2 0
BITMAP
0180
0180
0300
0600
0600
0C00
1800
1800
3000
6000
6000
C000
ENDCHAR
STARTCHAR 2070
ENCODING 8304
SWIDTH 480 0
DWIDTH 8 0
BBX 6 6 1 6
BITMAP
FC
84
84
84
84
FC
ENDCHAR
STARTCHAR 2074
ENCODING 8308
SWIDTH 540 0
DWIDTH 9 0
BBX 7 6 1 6
BITMAP
86
86
86
FE
06
06
ENDCHAR
STARTCHAR 2075
ENCODING 8309
SWIDTH 480 0
DWIDTH 8 0
BBX 7 6 1 6
BITMAP
F0
80
FC
06
06
FC
ENDCHAR
STARTCHAR 2076
ENCODING 8310
SWIDTH 480 0
DWIDTH 8 0
BBX 7 6 1 6
BITMAP
F0
80
FC
86
86
FE
ENDCHAR
STARTCHAR 2077
ENCODING 8311
SWIDTH 480 0
DWIDTH 8 0
BBX 8 6 0 6
BITMAP
FF
06
04
0C
18
30
ENDCHAR
STARTCHAR 2078
ENCODING 8312
SWIDTH 480 0
DWIDTH 8 0
BBX 6 6 1 6
BITMAP
FC
84
FC
84
84
FC
ENDCHAR
STARTCHAR 2079
ENCODING 8313
SWIDTH 480 0
DWIDTH 8 0
BBX 7 6 1 6
BITMAP
FC
86
86
FE
06
1C
ENDCHAR
STARTCHAR 2080
ENCODING 8320
SWIDTH 480 0
DWIDTH 8 0
BBX 6 6 1 0
BITMAP
FC
84
84
84
84
FC
ENDCHAR
STARTCHAR 2081
ENCODING 8321
SWIDTH 180 0
DWIDTH 3 0
BBX 1 6 1 0
BITMAP
80
80
80
80
80
80
ENDCHAR
STARTCHAR 2082
ENCODING 8322
SWIDTH 480 0
DWIDTH 8 0
BBX 7 6 1 0
BITMAP
1C
06
06
FC
80
FE
ENDCHAR
STARTCHAR 2083
ENCODING 8323
SWIDTH 480 0
DWIDTH 8 0
BBX 7 6 1 0
BITMAP
1C
04
04
FC
06
FC
ENDCHAR
STARTCHAR 2084
ENCODING 8324
SWIDTH 540 0
DWIDTH 9 0
BBX 7 6 1 0
BITMAP
86
86
86
86
FE
06
ENDCHAR
STARTCHAR 2085
ENCODING 8325
SWIDTH 480 0
DWIDTH 8 0
BBX 7 6 1 0
BITMAP
F0
80
80
FE
06
FE
ENDCHAR
STARTCHAR 2086
ENCODING 8326
SWIDTH 480 0
DWIDTH 8 0
BBX 7 6 1 0
BITMAP
F0
80
80
FE
86
FE
ENDCHAR
STARTCHAR 2087
ENCODING 8327
SWIDTH 480 0
DWIDTH 8 0
BBX 8 5 0 0
BITMAP
FF
06
0C
18
30
ENDCHAR
STARTCHAR 2088
ENCODING 8328
SWIDTH 480 0
DWIDTH 8 0
BBX 6 6 1 0
BITMAP
FC
84
84
FC
84
FC
ENDCHAR
STARTCHAR 2089
ENCODING 8329
SWIDTH 480 0
DWIDTH 8 0
BBX 7 6 1 0
BITMAP
FC
86
86
FE
06
1C
ENDCHAR
STARTCHAR 20AC
ENCODING 8364
SWIDTH 840 0
DWIDTH 14 0
BBX 13 12 0 0
BITMAP
1FF8
3FF8
3800
3000
FFF0
3000
3000
FFE0
3000
3800
3FF8
1FF8
ENDCHAR
STARTCHAR 2117
ENCODING 8471
SWIDTH 840 0
DWIDTH 14 0
BBX 13 12 1 0
BITMAP
7FE0
C030
8010
9F98
9098
9098
9F98
9018
9018
8010
C030
7FE0
ENDCHAR
STARTCHAR 2122
ENCODING 8482
SWIDTH 1260 0
DWIDTH 21 0
BBX 19 8 1 4
BITMAP
FC8060
31C0E0
31E0E0
31E1E0
31B360
319E60
318E60
318C60
ENDCHAR
STARTCHAR 2153
ENCODING 8531
SWIDTH 840 0
DWIDTH 14 0
BBX 13 12 1 0
BITMAP
4080
4180
4300
4200
4600
4C00
0870
1818
3010
23F0
6018
C3F0
ENDCHAR
STARTCHAR 2154
ENCODING 8532
SWIDTH 1080 0
DWIDTH 18 0
BBX 16 12 1 0
BITMAP
1C18
0630
FE30
8060
80C0
FEC0
018E
0303
0303
067E
0C03
0C7F
ENDCHAR
STARTCHAR 215B
ENCODING 8539
SWIDTH 900 0
DWIDTH 15 0
BBX 13 12 1 0
BITMAP
4080
4180
4300
4200
4600
4C00
09F8
1B18
3308
21F8
6308
C3F8
ENDCHAR
STARTCHAR 215C
ENCODING 8540
SWIDTH 1080 0
DWIDTH 18 0
BBX 16 12 1 0
BITMAP
1C18
0630
FC60
0660
FEC0
0180
01BF
0363
0663
063F
0C61
187F
ENDCHAR
STARTCHAR 215D
ENCODING 8541
SWIDTH 1080 0
DWIDTH 18 0
BBX 16 12 1 0
BITMAP
F018
8030
FE60
0660
06C0
FF80
01BF
0363
0661
063F
0C61
187F
ENDCHAR
STARTCHAR 215E
ENCODING 8542
SWIDTH 960 0
DWIDTH 16 0
BBX 14 12 1 0
BITMAP
FE60
06C0
0D80
1980
3300
2600
06FC
0D84
1984
18FC
3184
60FC
ENDCHAR
STARTCHAR 2202
ENCODING 8706
SWIDTH 660 0
DWIDTH 11 0
BBX 10 13 1 -1
BITMAP
0C00
1F00
0180
00C0
18C0
7EC0
C3C0
C1C0
C180
C180
C300
7F00
1800
ENDCHAR
STARTCHAR 220F
ENCODING 8719
SWIDTH 600 0
DWIDTH 10 0
BBX 8 16 1 -4
BITMAP
FF
FF
C3
C3
C3
C3
C3
C3
C3
C3
C3
C3
C3
C3
C3
C3
ENDCHAR
STARTCHAR 2211
ENCODING 8721
SWIDTH 660 0
DWIDTH 11 0
BBX 9 16 1 -4
BITMAP
FF80
FF80
E000
7000
3000
1800
1C00
0C00
0C00
1C00
1800
3000
7000
E000
FF80
FF80
ENDCHAR
STARTCHAR 2212
ENCODING 8722
SWIDTH 600 0
DWIDTH 10 0
BBX 8 2 1 5
BITMAP
FF
FF
ENDCHAR
STARTCHAR 221A
ENCODING 8730
SWIDTH 600 0
DWIDTH 10 0
BBX 8 12 1 0
BITMAP
03
03
03
02
06
C6
C4
6C
6C
2C
38
38
ENDCHAR
STARTCHAR 221E
ENCODING 8734
SWIDTH 780 0
DWIDTH 13 0
BBX 11 7 1 2
BITMAP
71C0
DBE0
8C20
8420
8420
CA60
71C0
ENDCHAR
STARTCHAR 222B
ENCODING 8747
SWIDTH 420 0
DWIDTH 7 0
BBX 6 18 0 -4
BITMAP
1C
10
30
30
30
30
30
30
30
30
30
30
30
30
30
30
30
E0
ENDCHAR
STARTCHAR 2248
ENCODING 8776
SWIDTH 600 0
DWIDTH 10 0
BBX 8 6 1 3
BITMAP
71
FF
0E
71
FF
0E
ENDCHAR
STARTCHAR 2260
ENCODING 8800
SWIDTH 600 0
DWIDTH 10 0
BBX 10 12 0 0
BITMAP
00C0
0180
0300
7F80
7F80
0C00
0C00
7F80
7F80
3000
6000
C000
ENDCHAR
STARTCHAR 2264
ENCODING 8804
SWIDTH 600 0
DWIDTH 10 0
BBX 8 12 1 -2
BITMAP
01
07
1E
78
E0
E0
78
1E
07
01
FF
FF
ENDCHAR
STARTCHAR 2265
ENCODING 8805
SWIDTH 600 0
DWIDTH 10 0
BBX 8 12 1 -2
BITMAP
80
E0
78
1C
07
07
1C
78
E0
80
FF
FF
ENDCHAR
STARTCHAR 25CA
ENCODING 9674
SWIDTH 540 0
DWIDTH 9 0
BBX 7 12 1 0
BITMAP
18
38
2C
6C
46
C6
C6
46
6C
2C
38
18
ENDCHAR
STARTCHAR FB01
ENCODING 64257
SWIDTH 720 0
DWIDTH 12 0
BBX 10 12 1 0
BITMAP
7DC0
FDC0
C080
FDC0
FDC0
C1C0
C1C0
C1C0
C1C0
C1C0
C1C0
C1C0
ENDCHAR
STARTCHAR FB02
ENCODING 64258
SWIDTH 720 0
DWIDTH 12 0
BBX 10 12 1 0
BITMAP
7DC0
FDC0
C1C0
FDC0
FDC0
C1C0
C1C0
C1C0
C1C0
C1C0
C1C0
C1C0
ENDCHAR
ENDFONT
